<svg id="04aa0e54-8bed-4038-8f0f-1a2b56cb7109" data-name="Layer 1" xmlns="http://www.w3.org/2000/svg" xmlns:xlink="http://www.w3.org/1999/xlink" width="28.95" height="30" viewBox="0 0 28.95 30"><defs><clipPath id="2f540e95-881a-4012-82ba-e93bb7b64706"><path d="M-577.95,1680.64c1.37,3.49,2.29,9.3,2.29,18.54,0,37.18-18.36,23.11-18.36,23.11h-.23l-.8-36.86v0l1.57-.14,3.08-4.74s8.32-10.45,12.46.13" fill="none" clip-rule="evenodd"/></clipPath><clipPath id="866b4c75-2d56-48e9-9004-87cdd6a39ebc"><path d="M-833.78,1577.87c.14.12.29.24.42.37-3.08,34.5-91.58,5.26-113.08,3.07s22.87,57,6.4,65.93-12.34,61.13-12.34,61.13h-14.47v-27.86h-5.86s-3.88-4.87-7.66-4.59h-.21l-.15,0a1.08,1.08,0,0,0-.19,0l-.17,0a4.52,4.52,0,0,0-2.16,1.35.87.87,0,0,0-.16.17l-.16.18a7.23,7.23,0,0,0-.6.86l-.15.24c-.19.34-.38.7-.56,1.1-.09.19-.17.38-.25.59l0,0h-11.49v-21c0-56.21,31.88-101.77,88.14-101.77h21.73l2.07,0c.84,0,1.68.05,2.53.1l1.48.1c.12,0,.23,0,.35,0,.49,0,1,.08,1.47.13s.69.06,1,.11l.76.08c.39,0,.77.1,1.15.15l.92.13,1,.16.79.13c.33.06.66.11,1,.18s.68.12,1,.19.55.1.82.17.78.15,1.16.24l.86.2c.2,0,.4.09.59.15l1.31.32c.14,0,.29.07.42.12l1.4.38q2.91.82,5.7,1.88c.5.17,1,.36,1.47.55.69.27,1.37.56,2.06.85.51.21,1,.43,1.52.67l1.43.65c.23.11.47.22.69.34.46.22.92.44,1.38.68h0l1.35.71.72.39.81.45.94.54.53.31c.37.21.73.43,1.09.66l.39.24c.4.24.81.5,1.2.77,1.13.72,2.24,1.48,3.32,2.26l1.14.83c1.42,1.07,2.82,2.18,4.17,3.34l.92.8" fill="none" clip-rule="evenodd"/></clipPath><clipPath id="d201a4ad-1cc4-4aa9-b2cb-dd1793d81190"><path d="M-966.85,1680.51h0m-18.3.06h0l0,0a1.22,1.22,0,0,1,.07-.17l-.09.22" fill="none" clip-rule="evenodd"/></clipPath><clipPath id="766e1ebd-6800-4d26-b7bd-b390fa87347a"><path d="M-738.84,1696a1.67,1.67,0,0,1-1-.32,1.69,1.69,0,0,1-.41-2.38c3-4.29,6.75-6.7,11-7.19,7.53-.85,13.9,4.73,14.17,5a1.71,1.71,0,0,1,.14,2.42,1.72,1.72,0,0,1-2.42.14s-5.53-4.81-11.52-4.12c-3.25.38-6.13,2.31-8.58,5.76a1.72,1.72,0,0,1-1.4.72" fill="none" clip-rule="evenodd"/></clipPath><clipPath id="19127d2d-b8fe-495a-86cb-a083f03e9ed0"><path d="M-181.89,1577.87l.42.37c-3.08,34.5-91.59,5.26-113.08,3.07s22.87,57,6.4,65.93-12.34,61.13-12.34,61.13H-315v-27.86h-5.85s-3.88-4.87-7.66-4.59h-.21l-.15,0a1.38,1.38,0,0,0-.2,0l-.17,0a4.56,4.56,0,0,0-2.16,1.35c-.05,0-.1.11-.16.17l-.15.18a6.27,6.27,0,0,0-.61.86c0,.07-.09.16-.14.24a11.28,11.28,0,0,0-.56,1.1c-.09.19-.18.38-.26.59l0,0h-11.5v-21c0-56.21,31.88-101.77,88.14-101.77h21.74c.69,0,1.38,0,2.06,0,.85,0,1.69.05,2.53.1l1.49.1.35,0c.49,0,1,.08,1.47.13s.69.06,1,.11l.76.08c.39,0,.76.1,1.15.15l.92.13,1,.16.79.13c.33.06.66.11,1,.18s.68.12,1,.19.55.1.83.17.77.15,1.16.24l.86.2c.2,0,.39.09.58.15l1.31.32c.15,0,.29.07.43.12l1.4.38q2.9.82,5.7,1.88c.49.17,1,.36,1.46.55.69.27,1.38.56,2.07.85.5.21,1,.43,1.52.67l1.43.65.69.34c.46.22.92.44,1.37.68h0l1.36.71.71.39c.27.15.55.29.81.45l.95.54.52.31c.37.21.74.43,1.1.66l.38.24c.41.24.81.5,1.21.77,1.13.72,2.24,1.48,3.32,2.26l1.13.83q2.15,1.61,4.18,3.34l.92.8" fill="none" clip-rule="evenodd"/></clipPath><clipPath id="32e9f835-80b7-4529-b839-05968cd1b8a0"><path d="M-315,1680.51h0m-18.3.06h0l0,0a1.22,1.22,0,0,0,.07-.17l-.09.22" fill="none" clip-rule="evenodd"/></clipPath><linearGradient id="c705ab93-2ff9-4567-af5a-15a3807b5aea" x1="14.47" y1="30" x2="14.47" gradientUnits="userSpaceOnUse"><stop offset="0" stop-color="#6e23ff"/><stop offset="1" stop-color="#fd7dff"/></linearGradient></defs><title>Squiggles</title><path d="M14.47,0A14.76,14.76,0,0,0,0,15,14.76,14.76,0,0,0,14.47,30,14.77,14.77,0,0,0,29,15,14.77,14.77,0,0,0,14.47,0Zm9.62,7.14a12.91,12.91,0,0,1,2.63,7.7,19.79,19.79,0,0,0-8.59-.4c-.35-.82-.7-1.61-1.07-2.37A17.43,17.43,0,0,0,24.09,7.14ZM22.54,5.46A15.15,15.15,0,0,1,16,10a61.11,61.11,0,0,0-4.5-7.32,11.71,11.71,0,0,1,11,2.78Zm-13.21-2a58.51,58.51,0,0,1,4.55,7.29,40.61,40.61,0,0,1-11.4,1.61A12.65,12.65,0,0,1,9.33,3.48ZM2.21,15c0-.11,0-.21,0-.32a42.35,42.35,0,0,0,12.71-1.83c.33.69.66,1.41,1,2.14A21,21,0,0,0,5.26,23.35,12.91,12.91,0,0,1,2.21,15ZM6.87,25a18.09,18.09,0,0,1,9.91-7.86,45.88,45.88,0,0,1,2.58,9.56A11.83,11.83,0,0,1,6.87,25Zm14.54.51A48.07,48.07,0,0,0,19,16.6a18.48,18.48,0,0,1,7.55.56A12.73,12.73,0,0,1,21.41,25.46Z" fill="url(#c705ab93-2ff9-4567-af5a-15a3807b5aea)"/></svg>