<svg id="8993f07d-eb81-4168-9af0-635c985f6c1a" data-name="Layer 1" xmlns="http://www.w3.org/2000/svg" xmlns:xlink="http://www.w3.org/1999/xlink" width="28.95" height="30" viewBox="0 0 28.95 30"><defs><clipPath id="7184804d-e4bd-45f8-85db-17cee927cbd7"><path d="M-538.33,1680.64c1.37,3.49,2.28,9.3,2.28,18.54,0,37.18-18.36,23.11-18.36,23.11h-.22l-.81-36.86v0l1.57-.14,3.07-4.74s8.33-10.45,12.47.13" fill="none" clip-rule="evenodd"/></clipPath><clipPath id="ee73fcc1-c692-40b7-b9fc-63d03f21305e"><path d="M-794.16,1577.87l.42.37c-3.08,34.5-91.59,5.26-113.08,3.07s22.87,57,6.4,65.93-12.34,61.13-12.34,61.13h-14.48v-27.86h-5.85s-3.88-4.87-7.66-4.59H-941l-.15,0a1.38,1.38,0,0,0-.2,0l-.17,0a4.61,4.61,0,0,0-2.16,1.35c-.05,0-.1.11-.16.17l-.15.18a6.27,6.27,0,0,0-.61.86c-.05.07-.09.16-.14.24a11.28,11.28,0,0,0-.56,1.1c-.09.19-.18.38-.26.59l0,0H-957v-21c0-56.21,31.88-101.77,88.14-101.77h21.74c.69,0,1.38,0,2.06,0,.85,0,1.69.05,2.53.1l1.49.1.35,0c.49,0,1,.08,1.47.13s.69.06,1,.11l.76.08c.39,0,.76.1,1.15.15l.92.13,1,.16.79.13c.33.06.66.11,1,.18s.68.12,1,.19.55.1.83.17.77.15,1.16.24l.86.2c.2,0,.39.09.58.15l1.32.32.42.12,1.4.38q2.89.82,5.7,1.88c.49.17,1,.36,1.46.55.69.27,1.38.56,2.07.85.5.21,1,.43,1.52.67l1.43.65.69.34c.46.22.92.44,1.37.68h0c.46.23.91.47,1.36.71l.71.39c.27.15.55.29.81.45l1,.54.52.31c.37.21.74.43,1.1.66l.38.24c.41.24.81.5,1.21.77,1.13.72,2.24,1.48,3.32,2.26l1.13.83q2.14,1.61,4.18,3.34l.92.8" fill="none" clip-rule="evenodd"/></clipPath><clipPath id="27058d1b-5550-4427-a98e-bd27beec168e"><path d="M-927.24,1680.51h0m-18.29.06h0l0,0a1.22,1.22,0,0,0,.07-.17,2,2,0,0,0-.08.22" fill="none" clip-rule="evenodd"/></clipPath><clipPath id="dd860e02-e07c-4db7-8e19-25681f5c49f1"><path d="M-699.22,1696a1.7,1.7,0,0,1-1-.32,1.7,1.7,0,0,1-.4-2.38c3-4.29,6.75-6.7,11-7.19,7.52-.85,13.9,4.73,14.17,5a1.72,1.72,0,0,1,.14,2.42,1.72,1.72,0,0,1-2.42.14c-.06,0-5.53-4.81-11.53-4.12-3.24.38-6.12,2.31-8.57,5.76a1.73,1.73,0,0,1-1.4.72" fill="none" clip-rule="evenodd"/></clipPath><clipPath id="78d6912c-6ca9-4b2d-88de-30f3f5aa63c6"><path d="M-142.27,1577.87l.42.37c-3.08,34.5-91.59,5.26-113.08,3.07s22.86,57,6.4,65.93-12.34,61.13-12.34,61.13h-14.48v-27.86h-5.86s-3.87-4.87-7.65-4.59h-.22l-.15,0a1.08,1.08,0,0,0-.19,0l-.17,0a4.52,4.52,0,0,0-2.16,1.35,1.33,1.33,0,0,0-.16.17l-.16.18a7.23,7.23,0,0,0-.6.86,1.88,1.88,0,0,0-.14.24,11.28,11.28,0,0,0-.57,1.1c-.09.19-.17.38-.25.59l0,0h-11.5v-21c0-56.21,31.88-101.77,88.14-101.77h21.73c.7,0,1.38,0,2.07,0,.84,0,1.69.05,2.53.1l1.48.1c.12,0,.24,0,.35,0,.5,0,1,.08,1.48.13.34,0,.68.06,1,.11l.76.08,1.14.15.92.13,1,.16.8.13c.33.06.66.11,1,.18s.67.12,1,.19.55.1.82.17.78.15,1.16.24l.87.2c.2,0,.39.09.58.15l1.31.32c.15,0,.29.07.43.12l1.4.38q2.9.82,5.7,1.88c.49.17,1,.36,1.46.55.69.27,1.38.56,2.06.85.51.21,1,.43,1.53.67l1.42.65.7.34c.46.22.92.44,1.37.68h0l1.36.71.71.39.81.45.95.54.52.31c.37.21.73.43,1.1.66l.38.24c.4.24.81.5,1.21.77,1.12.72,2.23,1.48,3.32,2.26l1.13.83q2.15,1.61,4.18,3.34l.92.8" fill="none" clip-rule="evenodd"/></clipPath><clipPath id="af93b073-fb8d-4230-a61d-e0870b4eccd7"><path d="M-275.35,1680.51h0m-18.3.06h0l0,0c0-.06.05-.11.07-.17l-.09.22" fill="none" clip-rule="evenodd"/></clipPath><linearGradient id="896ca463-e750-40bc-920d-fb8189f8d9fa" x1="14.47" y1="30" x2="14.47" gradientUnits="userSpaceOnUse"><stop offset="0" stop-color="#6e23ff"/><stop offset="1" stop-color="#fd7dff"/></linearGradient></defs><title>Squiggles</title><path d="M16.12,2.7c1.37,0,3.33,0,4.94.15a5.65,5.65,0,0,1,3.63,1.56,6.07,6.07,0,0,1,1.5,3.77c.11,1.66.14,3.7.15,5.1V16.7c0,1.42,0,3.46-.15,5.12a6.07,6.07,0,0,1-1.5,3.77,5.65,5.65,0,0,1-3.63,1.56c-1.61.11-3.58.14-4.93.15h-3.3c-1.37,0-3.34,0-4.94-.15a5.63,5.63,0,0,1-3.63-1.56,6.08,6.08,0,0,1-1.51-3.77c-.1-1.66-.14-3.7-.14-5.1V13.3c0-1.42,0-3.46.14-5.12A6.08,6.08,0,0,1,4.26,4.41,5.63,5.63,0,0,1,7.89,2.85c1.6-.11,3.57-.14,4.92-.15h3.31m0-2.7H12.81c-1.39,0-3.42,0-5.1.16A8.25,8.25,0,0,0,2.41,2.5,8.86,8.86,0,0,0,.15,8C0,9.73,0,11.84,0,13.28v3.44C0,18.16,0,20.27.15,22a8.86,8.86,0,0,0,2.26,5.5,8.25,8.25,0,0,0,5.3,2.34c1.68.12,3.71.15,5.1.16h3.32c1.4,0,3.42,0,5.1-.16a8.25,8.25,0,0,0,5.3-2.34A8.81,8.81,0,0,0,28.79,22c.11-1.73.15-3.84.16-5.28V13.28c0-1.44-.05-3.55-.16-5.28a8.81,8.81,0,0,0-2.26-5.5A8.25,8.25,0,0,0,21.23.16C19.55,0,17.53,0,16.13,0ZM14.47,10a4.91,4.91,0,0,1,4.82,5,4.91,4.91,0,0,1-4.82,5,4.91,4.91,0,0,1-4.81-5,4.91,4.91,0,0,1,4.81-5m0-2.7A7.56,7.56,0,0,0,7.05,15a7.56,7.56,0,0,0,7.42,7.69A7.56,7.56,0,0,0,21.89,15a7.56,7.56,0,0,0-7.42-7.69Zm7.72-2.1A1.8,1.8,0,1,0,23.93,7,1.77,1.77,0,0,0,22.19,5.21Z" fill="url(#896ca463-e750-40bc-920d-fb8189f8d9fa)"/></svg>