<svg id="b9b2dd93-69a3-4bcb-910b-c1c959ba6f59" data-name="Layer 1" xmlns="http://www.w3.org/2000/svg" xmlns:xlink="http://www.w3.org/1999/xlink" width="310.67" height="310.52" viewBox="0 0 310.67 310.52"><defs><clipPath id="7f4a6983-ec75-46a4-bc74-4603ef737091"><path d="M-861.77,1424.31l.42.37c-3.08,34.5-91.59,5.26-113.08,3.07s22.86,57,6.4,65.92-12.34,61.14-12.34,61.14h-14.48V1527h-5.86s-3.87-4.87-7.65-4.59h-.21l-.16,0-.19,0-.17,0a4.49,4.49,0,0,0-2.16,1.35s-.1.11-.16.17l-.16.18a7.23,7.23,0,0,0-.6.86,1.88,1.88,0,0,0-.14.24,11.28,11.28,0,0,0-.57,1.1c-.09.19-.17.38-.25.59l0,0h-11.5v-21c0-56.2,31.88-101.76,88.14-101.76h21.74c.69,0,1.38,0,2.06,0,.84,0,1.69,0,2.53.1l1.48.1c.12,0,.24,0,.35,0,.5,0,1,.07,1.48.13s.69.06,1,.11l.76.08,1.15.15.91.13c.35,0,.69.1,1,.16s.54.08.8.13l1,.18c.34.05.68.12,1,.19s.55.1.83.17.77.15,1.16.24l.86.2c.2,0,.39.09.58.15l1.31.32c.15,0,.29.07.43.12l1.4.38c1.93.55,3.83,1.18,5.7,1.87l1.46.56c.69.27,1.38.55,2.07.85.5.21,1,.43,1.52.66l1.43.66.69.34c.46.22.92.44,1.37.68h0l1.36.71.71.39.81.45,1,.54.52.31c.37.21.73.43,1.1.66.13.08.26.15.38.24.41.24.81.5,1.21.76,1.12.73,2.24,1.48,3.32,2.27.38.27.75.54,1.13.83,1.43,1.06,2.82,2.18,4.18,3.34l.92.8" fill="none" clip-rule="evenodd"/></clipPath><clipPath id="7b3c803d-ef5b-473e-bcab-b0b2b8a30190"><path d="M-994.85,1527h0m-18.3.06h0l0,0c0-.06,0-.11.07-.17l-.09.22" fill="none" clip-rule="evenodd"/></clipPath></defs><title>project-path-3</title><path d="M158.68,307.79c71.51-24,157.88-73.38,151.67-158S243.67-6.63,145.16.49,37.49,51.16,5.54,121.24,87.17,331.82,158.68,307.79Z" fill="#efefef" fill-rule="evenodd"/></svg>