<svg id="75ab7908-d155-4ef5-90a2-d8891837985b" data-name="Layer 1" xmlns="http://www.w3.org/2000/svg" xmlns:xlink="http://www.w3.org/1999/xlink" width="310.1" height="311.36" viewBox="0 0 310.1 311.36"><defs><clipPath id="5212e9c3-eadf-4457-aca3-237d6aa5cd30"><path d="M-503.46,1065l.42.37c-3.08,34.5-91.59,5.26-113.08,3.07s22.86,57,6.4,65.92-12.34,61.14-12.34,61.14h-14.48v-27.86h-5.86s-3.87-4.87-7.65-4.59h-.22l-.15,0a1.08,1.08,0,0,0-.19,0l-.17,0a4.49,4.49,0,0,0-2.16,1.34,1.45,1.45,0,0,0-.16.18l-.16.18a6.5,6.5,0,0,0-.6.86,1.88,1.88,0,0,0-.14.24,11.08,11.08,0,0,0-.57,1.09c-.09.2-.17.39-.25.6l0,0h-11.5v-21c0-56.2,31.88-101.76,88.14-101.76h21.73c.7,0,1.38,0,2.07,0s1.69,0,2.53.1l1.48.09.35,0c.5,0,1,.07,1.48.13.34,0,.68.06,1,.11l.76.08,1.14.15.92.12,1,.17c.27,0,.54.08.8.13l1,.18c.34.05.68.11,1,.19l.82.16,1.16.25.87.2.58.14,1.31.33c.15,0,.29.07.43.12l1.4.38c1.93.55,3.83,1.18,5.7,1.87l1.46.56c.69.27,1.38.55,2.06.85.51.21,1,.43,1.53.66l1.42.66.7.34c.46.22.92.44,1.37.68h0l1.36.71.71.39.81.45.95.54.52.31c.37.21.73.43,1.1.66.13.08.26.15.38.24.41.24.81.5,1.21.76,1.12.73,2.23,1.48,3.32,2.27l1.13.82c1.43,1.07,2.82,2.18,4.18,3.35l.92.8" fill="none" clip-rule="evenodd"/></clipPath><clipPath id="3a674e8a-8777-41c2-9ff3-8e2bfd68ebbb"><path d="M-636.54,1167.68h0m-18.3.06h0l0,0c0-.06.05-.11.07-.17l-.09.22" fill="none" clip-rule="evenodd"/></clipPath></defs><title>project-path-5</title><path d="M179.06,309c50.73-19.42,158.14-108.87,124.71-189.63S224.34-12.87,126.83,2.81,28.64,76.49,2.92,149.09,128.32,328.47,179.06,309Z" fill="#efefef" fill-rule="evenodd"/></svg>