<svg id="84f0cb7d-61db-4384-909f-c9ff2efc49cc" data-name="Layer 1" xmlns="http://www.w3.org/2000/svg" xmlns:xlink="http://www.w3.org/1999/xlink" width="311.34" height="311.17" viewBox="0 0 311.34 311.17"><defs><clipPath id="7f4b7a9e-a45e-4642-9848-fdcecc646fbf"><path d="M-861.88,1065.1c.13.12.28.24.41.37-3.08,34.5-91.58,5.26-113.07,3.07s22.86,57,6.4,65.93-12.34,61.13-12.34,61.13H-995v-27.86h-5.86s-3.87-4.87-7.65-4.59h-.22l-.15,0-.19,0-.17,0a4.52,4.52,0,0,0-2.16,1.35,1.29,1.29,0,0,0-.16.17l-.16.18a8.15,8.15,0,0,0-.6.86l-.15.24c-.19.34-.38.7-.56,1.1-.09.19-.17.38-.25.59l0,0h-11.5v-21c0-56.21,31.88-101.77,88.14-101.77h21.73c.7,0,1.38,0,2.07,0,.84,0,1.69.05,2.53.1l1.48.1c.12,0,.24,0,.35,0l1.48.13c.34,0,.68.06,1,.11l.76.08c.38,0,.76.1,1.14.16s.62.07.92.12l1,.16.8.13c.33.06.66.11,1,.18l1,.19.82.17c.39.07.78.15,1.16.24l.87.2c.2,0,.39.09.58.15.44.1.88.21,1.31.33a3.39,3.39,0,0,1,.43.11c.46.12.94.25,1.4.39,1.93.54,3.83,1.17,5.7,1.87.49.17,1,.36,1.46.55l2.06.85c.51.21,1,.43,1.53.67l1.42.65.7.34,1.37.68h0l1.36.72.71.38.81.45,1,.54.52.31c.37.21.73.43,1.1.66l.38.24c.4.25.81.5,1.21.77,1.12.72,2.23,1.48,3.32,2.26l1.13.83q2.15,1.61,4.18,3.34l.92.8" fill="none" clip-rule="evenodd"/></clipPath><clipPath id="51970158-82fe-4ea6-8cf3-f426bef8e63a"><path d="M-995,1167.74h0m-18.3.06h0l0,0s0-.11.07-.17l-.09.22" fill="none" clip-rule="evenodd"/></clipPath></defs><title>project-path-6</title><path d="M198.65,300.35c64.27-39.5,132.46-91.48,107.36-172.57S196.67-22.31,102.29,6.79,16.47,113.07,1.11,188.54,134.39,339.85,198.65,300.35Z" fill="#efefef" fill-rule="evenodd"/></svg>