<svg id="268a628c-d910-4208-8f29-6b07836aba59" data-name="Layer 1" xmlns="http://www.w3.org/2000/svg" xmlns:xlink="http://www.w3.org/1999/xlink" width="310.73" height="309.92" viewBox="0 0 310.73 309.92"><defs><clipPath id="5455791b-95c2-47b5-b7c9-e3d416406635"><path d="M-538.5,1527.53c1.37,3.5,2.28,9.3,2.28,18.55,0,37.18-18.36,23.11-18.36,23.11h-.22l-.81-36.86v0l1.57-.14,3.07-4.75s8.33-10.44,12.47.13" fill="none" clip-rule="evenodd"/></clipPath><clipPath id="581ca74b-ea44-4b2b-9f30-84c48435d03b"><path d="M-794.33,1424.77c.14.11.28.24.42.37-3.08,34.5-91.59,5.25-113.08,3.07s22.86,57,6.4,65.92-12.34,61.13-12.34,61.13h-14.48V1527.4h-5.86s-3.87-4.86-7.65-4.59h-.21l-.16,0-.19,0-.17,0a4.46,4.46,0,0,0-2.16,1.34l-.16.17-.16.19a7.09,7.09,0,0,0-.6.85c0,.08-.1.16-.14.24a11.28,11.28,0,0,0-.57,1.1c-.08.19-.17.38-.25.6l0,0h-11.5v-21c0-56.2,31.88-101.77,88.14-101.77h21.74c.69,0,1.38,0,2.06,0,.85,0,1.69.06,2.53.1l1.48.1.35,0,1.48.13,1,.11c.26,0,.51,0,.76.09l1.15.15.92.12c.34.05.68.1,1,.17s.54.08.8.13l1,.17c.34.06.68.12,1,.2s.55.1.83.16l1.16.25.86.2a5.45,5.45,0,0,1,.58.14c.44.1.88.21,1.31.33l.43.11c.47.12.94.25,1.4.39,1.93.55,3.83,1.18,5.7,1.87l1.46.55,2.07.85,1.52.67c.48.21.95.43,1.43.66l.69.33,1.37.68,0,0c.45.23.91.46,1.36.71l.71.38.81.45.95.55.52.3,1.1.66.38.24c.41.25.81.5,1.21.77,1.12.73,2.24,1.48,3.32,2.26l1.13.83q2.14,1.61,4.18,3.34c.31.27.62.53.92.81" fill="none" clip-rule="evenodd"/></clipPath><clipPath id="152a7ca1-bc7b-4266-808c-07376ab02c79"><path d="M-927.41,1527.4h0m-18.3.07h0l0,0c0-.06.05-.12.07-.17l-.09.22" fill="none" clip-rule="evenodd"/></clipPath><clipPath id="a5da74f1-fb11-4e4c-a3a1-11aaf2b8b007"><path d="M-699.4,1542.84a1.73,1.73,0,0,1-1-.31,1.71,1.71,0,0,1-.4-2.39c3-4.28,6.74-6.7,11-7.18,7.53-.86,13.91,4.73,14.17,5a1.71,1.71,0,0,1,.15,2.42,1.72,1.72,0,0,1-2.42.15c-.06,0-5.53-4.81-11.53-4.12-3.24.37-6.13,2.31-8.58,5.75a1.7,1.7,0,0,1-1.4.72" fill="none" clip-rule="evenodd"/></clipPath><clipPath id="29f3c6d7-82d8-4b7e-acf2-53af3c4660be"><path d="M-142.44,1424.77c.13.11.28.24.41.37-3.08,34.5-91.58,5.25-113.07,3.07s22.86,57,6.4,65.92S-261,1555.26-261,1555.26h-14.47V1527.4h-5.86s-3.88-4.86-7.66-4.59h-.21l-.15,0-.19,0-.17,0a4.42,4.42,0,0,0-2.16,1.34,1.29,1.29,0,0,0-.16.17l-.16.19a7.09,7.09,0,0,0-.6.85l-.15.24c-.19.34-.38.7-.56,1.1-.09.19-.17.38-.25.6l0,0h-11.5v-21c0-56.2,31.88-101.77,88.14-101.77h21.73c.7,0,1.38,0,2.07,0,.84,0,1.69.06,2.53.1l1.48.1.35,0,1.48.13,1,.11c.27,0,.51,0,.77.09l1.14.15c.31,0,.62.07.92.12s.69.1,1,.17.54.08.8.13l1,.17c.35.06.68.12,1,.2s.55.1.82.16l1.16.25.87.2a5.45,5.45,0,0,1,.58.14c.44.1.88.21,1.31.33l.43.11c.46.12.94.25,1.39.39,1.94.55,3.84,1.18,5.71,1.87l1.46.55,2.06.85,1.52.67c.49.21,1,.43,1.43.66l.69.33,1.38.68,0,0,1.36.71.71.38.81.45,1,.55.52.3,1.09.66.39.24c.4.25.81.5,1.21.77,1.12.73,2.23,1.48,3.32,2.26l1.13.83q2.14,1.61,4.18,3.34l.92.81" fill="none" clip-rule="evenodd"/></clipPath><clipPath id="79209236-a7bb-4be3-99d4-19dbaccbeb59"><path d="M-275.52,1527.4h0m-18.3.07h0l0,0a.87.87,0,0,1,.07-.17l-.09.22" fill="none" clip-rule="evenodd"/></clipPath><clipPath id="aedf002a-c3ff-4ecd-ba90-d702df01d190"><path d="M159.05,306.9c71.08-25.27,158.9-77.43,151.21-162S239.8-8.07,141.43.77,35.88,51.05,5.16,121.68,88,332.18,159.05,306.9Z" fill="none" clip-rule="evenodd"/></clipPath><clipPath id="094e9ac6-2b7e-481b-bc10-85880d97035b"><path d="M-175.12-2229.21v-2.25h-16.45v2.25h16.45Zm-27.26-3.95a7.17,7.17,0,0,0,3.63-.94,6,6,0,0,0,2.47-2.52h.07v3.28h2.9v-13a5.49,5.49,0,0,0-2-4.46,8.1,8.1,0,0,0-5.36-1.66,7.93,7.93,0,0,0-5,1.62,5.12,5.12,0,0,0-2.13,4h2.93a3.36,3.36,0,0,1,1.42-2.14,4.8,4.8,0,0,1,2.79-.78,4.91,4.91,0,0,1,3.21.94,3.36,3.36,0,0,1,1.13,2.72v1.58l-5.31.32q-7.11.43-7.1,5.45a5.08,5.08,0,0,0,1.76,4A6.8,6.8,0,0,0-202.38-2233.16Zm.65-2.66a4.67,4.67,0,0,1-2.86-.79,2.48,2.48,0,0,1-1.06-2.11q0-2.78,4.32-3l5-.31v1.53a4.33,4.33,0,0,1-1.52,3.38A5.58,5.58,0,0,1-201.73-2235.82Zm-22.94,9.36a5.75,5.75,0,0,0,3.89-1.21,11.14,11.14,0,0,0,2.59-4.51l7.42-20.11H-214l-5.31,15.84h-.07l-5.3-15.84h-3.26l7,19-.37,1.13a5.79,5.79,0,0,1-1.37,2.42,3.05,3.05,0,0,1-2.11.7c-.2,0-.42,0-.64,0s-.43,0-.61-.08v2.58a2.62,2.62,0,0,0,.43.06l.47.05Zm-13.73-9.43a5.06,5.06,0,0,1-4.14-1.83,7.89,7.89,0,0,1-1.49-5.09,7.87,7.87,0,0,1,1.49-5.09,5,5,0,0,1,4.14-1.84,5,5,0,0,1,4.14,1.83,7.88,7.88,0,0,1,1.48,5.1,7.89,7.89,0,0,1-1.48,5.09A5,5,0,0,1-238.4-2235.89Zm0,2.73a8.15,8.15,0,0,0,6.36-2.63,10.08,10.08,0,0,0,2.37-7,10.07,10.07,0,0,0-2.37-7,8.14,8.14,0,0,0-6.36-2.62,8.16,8.16,0,0,0-6.37,2.62,10.07,10.07,0,0,0-2.37,7,10.08,10.08,0,0,0,2.37,7A8.17,8.17,0,0,0-238.4-2233.16Zm-18.11-23.4v4.27h-2.64v2.53h2.64v11.5a5.58,5.58,0,0,0,1.1,3.89,4.84,4.84,0,0,0,3.66,1.17c.37,0,.74,0,1.12,0a7,7,0,0,0,.85-.11v-2.59l-.6.05a7,7,0,0,1-.72,0,2.32,2.32,0,0,1-1.78-.62,2.73,2.73,0,0,1-.57-1.91v-11.38h3.69v-2.53h-3.69v-4.27h-3.06Zm-21.29,23.22h3.06v-11a5.61,5.61,0,0,1,1.33-3.92,4.64,4.64,0,0,1,3.66-1.48,4.24,4.24,0,0,1,3.34,1.23,5.18,5.18,0,0,1,1.09,3.55v11.62h3.06v-12.14a7.25,7.25,0,0,0-1.72-5.11,6.26,6.26,0,0,0-4.85-1.87,7.34,7.34,0,0,0-3.66.82,6.08,6.08,0,0,0-2.36,2.43h-.07v-3.08h-2.88v18.95Zm-12.64-2.55a5,5,0,0,1-4.13-1.83,7.84,7.84,0,0,1-1.49-5.09,7.87,7.87,0,0,1,1.48-5.09,5,5,0,0,1,4.14-1.84,5,5,0,0,1,4.14,1.83,7.88,7.88,0,0,1,1.49,5.1,7.89,7.89,0,0,1-1.49,5.09A5,5,0,0,1-290.44-2235.89Zm0,2.73a8.15,8.15,0,0,0,6.36-2.63,10,10,0,0,0,2.38-7,10,10,0,0,0-2.38-7,8.14,8.14,0,0,0-6.36-2.62,8.14,8.14,0,0,0-6.36,2.62,10.08,10.08,0,0,0-2.38,7,10.08,10.08,0,0,0,2.38,7A8.15,8.15,0,0,0-290.44-2233.16Zm-38.39-.18h3.06v-11.76a4.61,4.61,0,0,1,1.25-3.31,4.11,4.11,0,0,1,3.14-1.33,4,4,0,0,1,2.86,1,3.65,3.65,0,0,1,1.08,2.76v12.6h3.06v-11.92a4.44,4.44,0,0,1,1.22-3.21,4.12,4.12,0,0,1,3.12-1.27,3.85,3.85,0,0,1,2.94,1.1,4.27,4.27,0,0,1,1.05,3.07v12.23H-303v-12.93a6.09,6.09,0,0,0-1.68-4.51,6.07,6.07,0,0,0-4.49-1.68,6.74,6.74,0,0,0-3.57.95,6.09,6.09,0,0,0-2.39,2.63h-.07a5.23,5.23,0,0,0-2-2.65,5.78,5.78,0,0,0-3.31-.93,6.21,6.21,0,0,0-3.28.87,5.22,5.22,0,0,0-2.1,2.38h-.07v-3.08h-2.88v18.95Zm-18.3-13.66q0,3.78,4.94,5.07l3.32.86a5.8,5.8,0,0,1,2.29,1,2,2,0,0,1,.66,1.59,2.3,2.3,0,0,1-1.13,2,5.51,5.51,0,0,1-3.07.75,5.43,5.43,0,0,1-3.07-.77,3.13,3.13,0,0,1-1.39-2.2h-3.08a5.41,5.41,0,0,0,2.25,4,8.24,8.24,0,0,0,5.08,1.52,8.87,8.87,0,0,0,5.39-1.55,4.72,4.72,0,0,0,2.1-4,4.31,4.31,0,0,0-1.16-3.21,9,9,0,0,0-4-1.85l-2.89-.72a6,6,0,0,1-2.41-1.07,2,2,0,0,1-.78-1.62,2.33,2.33,0,0,1,1.07-2,4.84,4.84,0,0,1,2.83-.75,4.76,4.76,0,0,1,2.83.77,2.89,2.89,0,0,1,1.23,2.11h2.93a5,5,0,0,0-2-3.88,7.66,7.66,0,0,0-4.85-1.53,8,8,0,0,0-5,1.52A4.74,4.74,0,0,0-347.13-2247Zm-12.32,11.11a5.06,5.06,0,0,1-4.14-1.83,7.89,7.89,0,0,1-1.49-5.09,7.87,7.87,0,0,1,1.49-5.09,5,5,0,0,1,4.14-1.84,5,5,0,0,1,4.14,1.83,7.88,7.88,0,0,1,1.48,5.1,7.89,7.89,0,0,1-1.48,5.09A5,5,0,0,1-359.45-2235.89Zm0,2.73a8.15,8.15,0,0,0,6.36-2.63,10.08,10.08,0,0,0,2.37-7,10.07,10.07,0,0,0-2.37-7,8.14,8.14,0,0,0-6.36-2.62,8.16,8.16,0,0,0-6.37,2.62,10.07,10.07,0,0,0-2.37,7,10.08,10.08,0,0,0,2.37,7A8.17,8.17,0,0,0-359.45-2233.16Zm-15.88-.18h3.06v-26.47h-3.06v26.47Z" fill="none" clip-rule="evenodd"/></clipPath><clipPath id="e005a8a4-bf55-4140-b946-61e54c6b8c37"><rect x="-542.56" y="-2308.34" width="1440" height="5199" fill="none"/></clipPath></defs><title>project-path-1-img</title><g clip-path="url(#aedf002a-c3ff-4ecd-ba90-d702df01d190)"><image width="1608" height="1186" transform="translate(-59.42 -3.46) scale(0.27)" xlink:href="../project-1.png"/></g><g clip-path="url(#094e9ac6-2b7e-481b-bc10-85880d97035b)"><g clip-path="url(#e005a8a4-bf55-4140-b946-61e54c6b8c37)"><g opacity="0"><g opacity="0"><g clip-path="url(#e005a8a4-bf55-4140-b946-61e54c6b8c37)"><image width="6001" height="21663" transform="translate(-542.64 -2308.36) scale(0.24)" xlink:href="project-path-1-img1.png"/></g></g></g><g clip-path="url(#e005a8a4-bf55-4140-b946-61e54c6b8c37)"><image width="6001" height="21663" transform="translate(-542.64 -2308.36) scale(0.24)" xlink:href="project-path-1-img2.png"/></g></g></g></svg>