<svg id="1f68d1bf-1e76-4a2e-b604-04c0e9ee2a88" data-name="Layer 1" xmlns="http://www.w3.org/2000/svg" xmlns:xlink="http://www.w3.org/1999/xlink" width="310.73" height="309.92" viewBox="0 0 310.73 309.92"><defs><clipPath id="808549b2-1480-47d7-bc63-73b0c0d51404"><path d="M-538.5,1527.53c1.37,3.5,2.28,9.3,2.28,18.55,0,37.18-18.36,23.11-18.36,23.11h-.22l-.81-36.86v0l1.57-.14,3.07-4.75s8.33-10.44,12.47.13" fill="none" clip-rule="evenodd"/></clipPath><clipPath id="1f7976f7-0a2e-4c9f-b521-5a8b3c6fb6e6"><path d="M-794.33,1424.77c.14.11.28.24.42.37-3.08,34.5-91.59,5.25-113.08,3.07s22.86,57,6.4,65.92-12.34,61.13-12.34,61.13h-14.48V1527.4h-5.86s-3.87-4.86-7.65-4.59h-.21l-.16,0-.19,0-.17,0a4.46,4.46,0,0,0-2.16,1.34l-.16.17-.16.19a7.09,7.09,0,0,0-.6.85c0,.08-.1.16-.14.24a11.28,11.28,0,0,0-.57,1.1c-.08.19-.17.38-.25.6l0,0h-11.5v-21c0-56.2,31.88-101.77,88.14-101.77h21.74c.69,0,1.38,0,2.06,0,.85,0,1.69.06,2.53.1l1.48.1.35,0,1.48.13,1,.11c.26,0,.51,0,.76.09l1.15.15.92.12c.34.05.68.1,1,.17s.54.08.8.13l1,.17c.34.06.68.12,1,.2s.55.1.83.16l1.16.25.86.2a5.45,5.45,0,0,1,.58.14c.44.1.88.21,1.31.33l.43.11c.47.12.94.25,1.4.39,1.93.55,3.83,1.18,5.7,1.87l1.46.55,2.07.85,1.52.67c.48.21.95.43,1.43.66l.69.33,1.37.68,0,0c.45.23.91.46,1.36.71l.71.38.81.45.95.55.52.3,1.1.66.38.24c.41.25.81.5,1.21.77,1.12.73,2.24,1.48,3.32,2.26l1.13.83q2.14,1.61,4.18,3.34c.31.27.62.53.92.81" fill="none" clip-rule="evenodd"/></clipPath><clipPath id="13c0ac41-389f-4a10-b98b-ea81e3103e2d"><path d="M-927.41,1527.4h0m-18.3.07h0l0,0c0-.06.05-.12.07-.17l-.09.22" fill="none" clip-rule="evenodd"/></clipPath><clipPath id="eba601df-77fc-4845-8495-5e3ec8c16ed9"><path d="M-699.4,1542.84a1.73,1.73,0,0,1-1-.31,1.71,1.71,0,0,1-.4-2.39c3-4.28,6.74-6.7,11-7.18,7.53-.86,13.91,4.73,14.17,5a1.71,1.71,0,0,1,.15,2.42,1.72,1.72,0,0,1-2.42.15c-.06,0-5.53-4.81-11.53-4.12-3.24.37-6.13,2.31-8.58,5.75a1.7,1.7,0,0,1-1.4.72" fill="none" clip-rule="evenodd"/></clipPath><clipPath id="0ecd6219-1e27-446f-8397-583d0085e13b"><path d="M-142.44,1424.77c.13.11.28.24.41.37-3.08,34.5-91.58,5.25-113.07,3.07s22.86,57,6.4,65.92S-261,1555.26-261,1555.26h-14.47V1527.4h-5.86s-3.88-4.86-7.66-4.59h-.21l-.15,0-.19,0-.17,0a4.42,4.42,0,0,0-2.16,1.34,1.29,1.29,0,0,0-.16.17l-.16.19a7.09,7.09,0,0,0-.6.85l-.15.24c-.19.34-.38.7-.56,1.1-.09.19-.17.38-.25.6l0,0h-11.5v-21c0-56.2,31.88-101.77,88.14-101.77h21.73c.7,0,1.38,0,2.07,0,.84,0,1.69.06,2.53.1l1.48.1.35,0,1.48.13,1,.11c.27,0,.51,0,.77.09l1.14.15c.31,0,.62.07.92.12s.69.1,1,.17.54.08.8.13l1,.17c.35.06.68.12,1,.2s.55.1.82.16l1.16.25.87.2a5.45,5.45,0,0,1,.58.14c.44.1.88.21,1.31.33l.43.11c.46.12.94.25,1.39.39,1.94.55,3.84,1.18,5.71,1.87l1.46.55,2.06.85,1.52.67c.49.21,1,.43,1.43.66l.69.33,1.38.68,0,0,1.36.71.71.38.81.45,1,.55.52.3,1.09.66.39.24c.4.25.81.5,1.21.77,1.12.73,2.23,1.48,3.32,2.26l1.13.83q2.14,1.61,4.18,3.34l.92.81" fill="none" clip-rule="evenodd"/></clipPath><clipPath id="a8a8dd12-ed8f-41bd-9336-3a62a2df0db2"><path d="M-275.52,1527.4h0m-18.3.07h0l0,0a.87.87,0,0,1,.07-.17l-.09.22" fill="none" clip-rule="evenodd"/></clipPath></defs><title>project-path-1</title><path d="M159.05,306.9c71.08-25.27,158.9-77.43,151.21-162S239.8-8.07,141.43.77,35.88,51.05,5.16,121.68,88,332.18,159.05,306.9Z" fill="#efefef" fill-rule="evenodd"/></svg>