<svg id="273ee9c7-d345-404d-a291-17444885f980" data-name="Layer 1" xmlns="http://www.w3.org/2000/svg" xmlns:xlink="http://www.w3.org/1999/xlink" width="311.21" height="315.74" viewBox="0 0 311.21 315.74"><defs><clipPath id="c3c7a263-b27e-4096-996b-8e3fa0e9bdd4"><path d="M-501.36,1429.31c.14.11.28.24.42.37-3.08,34.5-91.59,5.25-113.08,3.07s22.86,57,6.4,65.92S-620,1559.8-620,1559.8h-14.48v-27.86h-5.86s-3.87-4.86-7.65-4.59l-.15,0h-.07l-.15,0-.19,0-.17,0a4.54,4.54,0,0,0-2.16,1.34c-.06,0-.1.11-.16.17l-.16.19a6.5,6.5,0,0,0-.6.86,1.38,1.38,0,0,0-.14.24,10.05,10.05,0,0,0-.57,1.09c-.09.19-.17.39-.25.6l0,0h-11.5v-21c0-56.2,31.88-101.76,88.14-101.76h21.74c.69,0,1.37,0,2.06,0s1.69.06,2.53.11c.5,0,1,.06,1.48.09l.35,0c.5,0,1,.07,1.48.13s.68.06,1,.11.51,0,.76.08l1.14.15c.31,0,.62.07.92.12l1,.17c.27,0,.54.08.8.13l1,.18c.34.05.68.11,1,.19l.83.16,1.15.25.87.2.58.14c.44.1.88.21,1.31.33a3,3,0,0,1,.43.12c.46.11.94.24,1.4.38,1.93.55,3.83,1.18,5.7,1.87.49.18,1,.36,1.46.56.69.27,1.38.55,2.06.85.51.21,1,.43,1.53.66s1,.43,1.42.66l.7.33,1.37.68,0,0c.45.23.91.46,1.36.71l.71.38.81.46c.32.17.63.35,1,.54l.52.31,1.1.65.38.24c.41.25.81.5,1.21.77,1.12.73,2.24,1.48,3.32,2.26l1.13.83c1.43,1.07,2.82,2.18,4.18,3.35.31.26.62.52.92.8" fill="none" clip-rule="evenodd"/></clipPath><clipPath id="0c385706-0c4b-48dc-ac3d-4ae881ec39c8"><path d="M-634.44,1531.94h0m-18.3.07h0l0,0c0-.06.05-.12.07-.17l-.09.22" fill="none" clip-rule="evenodd"/></clipPath></defs><title>project-path-2</title><path d="M229,303.25c60.58-44.95,103.34-120.49,71.27-199.08S179.75-24.7,88.26,12.51,9,110.11.31,186.63,168.41,348.2,229,303.25Z" fill="#efefef" fill-rule="evenodd"/></svg>