<svg id="7527272e-8e53-4c50-9819-0552318dab09" data-name="Layer 1" xmlns="http://www.w3.org/2000/svg" xmlns:xlink="http://www.w3.org/1999/xlink" width="308.56" height="314.7" viewBox="0 0 308.56 314.7"><defs><clipPath id="00210d0e-e5cb-4351-9102-dac807819ec6"><path d="M-538.33,1170.13c1.37,3.49,2.28,9.3,2.28,18.54,0,37.18-18.36,23.11-18.36,23.11h-.22l-.81-36.87v0l1.57-.14,3.07-4.75s8.33-10.44,12.47.14" fill="none" clip-rule="evenodd"/></clipPath><clipPath id="f979c79c-5df3-4b42-b16a-6636728b00db"><path d="M-794.16,1067.36l.42.37c-3.08,34.5-91.59,5.26-113.08,3.07s22.87,57,6.4,65.92-12.34,61.13-12.34,61.13h-14.48V1170h-5.85s-3.88-4.86-7.66-4.59l-.15,0H-941l-.15,0-.2,0-.17,0a4.59,4.59,0,0,0-2.16,1.34l-.16.17-.15.19a5.71,5.71,0,0,0-.61.86,2.55,2.55,0,0,0-.14.24,10.05,10.05,0,0,0-.56,1.09c-.09.19-.18.39-.26.6l0,0H-957v-21c0-56.2,31.88-101.76,88.14-101.76h21.74c.69,0,1.38,0,2.06,0,.85,0,1.69.06,2.53.11.5,0,1,.06,1.49.09l.35,0c.49,0,1,.07,1.47.13s.69.06,1,.11l.76.08c.39,0,.76.09,1.15.15s.61.08.92.12l1,.17c.26,0,.53.08.79.13s.66.11,1,.18.68.11,1,.19l.83.16,1.16.25.86.2.58.14,1.32.33.42.12c.47.11.94.24,1.4.38,1.93.55,3.83,1.18,5.7,1.87l1.46.56c.69.27,1.38.55,2.07.85.5.21,1,.43,1.52.66s1,.43,1.43.66l.69.34,1.37.67,0,0c.46.23.91.46,1.36.71l.71.38c.27.15.55.3.81.46s.63.35,1,.54l.52.31,1.1.65.38.24c.41.25.81.5,1.21.77,1.13.73,2.24,1.48,3.32,2.26l1.13.83c1.43,1.07,2.82,2.18,4.18,3.35.31.26.62.52.92.8" fill="none" clip-rule="evenodd"/></clipPath><clipPath id="3319a360-1aea-4cc5-a532-05ee8a1af62b"><path d="M-927.24,1170h0m-18.29.07h0l0,0c0-.06,0-.12.07-.17a1.43,1.43,0,0,0-.08.22" fill="none" clip-rule="evenodd"/></clipPath><clipPath id="f7d71cd4-e04b-4a5f-a689-636bc57cfd17"><path d="M-699.22,1185.44a1.77,1.77,0,0,1-1-.32,1.71,1.71,0,0,1-.4-2.39c3-4.28,6.75-6.7,11-7.18,7.52-.85,13.9,4.73,14.17,5a1.72,1.72,0,0,1,.14,2.42,1.72,1.72,0,0,1-2.42.14c-.06,0-5.53-4.81-11.53-4.12-3.24.37-6.12,2.31-8.57,5.76a1.73,1.73,0,0,1-1.4.72" fill="none" clip-rule="evenodd"/></clipPath><clipPath id="8388889d-8516-4db7-8c5d-4bec75a3c575"><path d="M-142.27,1067.36l.42.37c-3.08,34.5-91.59,5.26-113.08,3.07s22.86,57,6.4,65.92-12.34,61.13-12.34,61.13h-14.48V1170h-5.86s-3.87-4.86-7.65-4.59l-.15,0h-.07l-.15,0-.19,0-.17,0a4.49,4.49,0,0,0-2.16,1.34c-.06.05-.1.11-.16.17l-.16.19a6.5,6.5,0,0,0-.6.86,1.38,1.38,0,0,0-.14.24,10.05,10.05,0,0,0-.57,1.09c-.09.19-.17.39-.25.6l0,0h-11.5v-21c0-56.2,31.88-101.76,88.14-101.76h21.73c.7,0,1.38,0,2.07,0,.84,0,1.69.06,2.53.11l1.48.09.35,0c.5,0,1,.07,1.48.13.34,0,.68.06,1,.11l.76.08,1.14.15c.31,0,.62.08.92.12l1,.17c.27,0,.54.08.8.13s.66.11,1,.18.67.11,1,.19l.82.16,1.16.25.87.2.58.14c.44.1.88.21,1.31.33a3,3,0,0,1,.43.12c.46.11.94.24,1.4.38,1.93.55,3.83,1.18,5.7,1.87l1.46.56c.69.27,1.38.55,2.06.85.51.21,1,.43,1.53.66s1,.43,1.42.66l.7.34,1.37.67,0,0,1.36.71.71.38.81.46c.32.17.63.35.95.54l.52.31,1.1.65.38.24c.4.25.81.5,1.21.77,1.12.73,2.23,1.48,3.32,2.26l1.13.83c1.43,1.07,2.82,2.18,4.18,3.35.31.26.62.52.92.8" fill="none" clip-rule="evenodd"/></clipPath><clipPath id="120d8f7d-bc6b-49e2-8f7d-62204c5f6de0"><path d="M-275.35,1170h0m-18.3.07h0l0,0c0-.06.05-.12.07-.17l-.09.22" fill="none" clip-rule="evenodd"/></clipPath></defs><title>project-path-4</title><path d="M177.35,310.47c48.85-23.77,163.08-157,122.74-234.54S198.5-12.78,102.73,11.34,21,104.18,1.74,178.75,128.5,334.25,177.35,310.47Z" fill="#efefef" fill-rule="evenodd"/></svg>