<svg id="21001736-fcbb-4f78-ac95-23a7fec86536" data-name="Layer 1" xmlns="http://www.w3.org/2000/svg" xmlns:xlink="http://www.w3.org/1999/xlink" viewBox="0 0 436.36 415.88" preserveAspectRatio="xMidYMid meet"><defs><clipPath id="d7b072cd-0df0-48ee-8a89-942b1a89b108"><path d="M-231.47,150.86c1.37,3.5,2.29,9.3,2.29,18.55,0,37.18-18.36,23.11-18.36,23.11h-.23l-.8-36.86v0l1.57-.15,3.08-4.74s8.33-10.44,12.46.13" fill="none" clip-rule="evenodd"/></clipPath><clipPath id="82daf708-6c1b-4094-95c7-2031242d917d"><path d="M-487.29,48.1c.13.11.28.24.41.37C-490,83-578.46,53.72-599.95,51.54s22.86,57,6.4,65.92-12.34,61.13-12.34,61.13h-14.48V150.73h-5.86s-3.87-4.86-7.65-4.59h-.22l-.15,0-.19,0-.17,0a4.42,4.42,0,0,0-2.16,1.34,1.29,1.29,0,0,0-.16.17l-.16.19a7.09,7.09,0,0,0-.6.85l-.15.24c-.19.34-.38.7-.56,1.1-.09.19-.17.38-.25.6l0,0h-11.5v-21c0-56.21,31.88-101.77,88.14-101.77h21.73c.7,0,1.38,0,2.07,0,.84,0,1.69.06,2.53.1l1.48.1.35,0,1.48.13,1,.11c.26,0,.5.05.76.09s.76.09,1.14.15.62.07.92.12l1,.16.8.13c.33.06.66.11,1,.18l1,.19.82.17,1.16.25.87.19c.2,0,.39.09.58.15.44.1.88.21,1.31.33l.43.11c.46.12.94.25,1.4.39,1.93.55,3.83,1.18,5.7,1.87l1.46.55,2.06.85,1.53.67c.48.21.95.43,1.42.66l.7.33,1.37.68h0l1.36.72.71.38.81.45.95.54.52.31,1.1.66.38.24c.4.25.81.5,1.21.77,1.12.72,2.23,1.48,3.32,2.26l1.13.83q2.14,1.61,4.18,3.34c.31.26.61.53.92.81" fill="none" clip-rule="evenodd"/></clipPath><clipPath id="e09878c9-2b87-4cb1-bde7-06f41547fb6f"><path d="M-620.37,150.73h0m-18.3.07h0l0,0a1.34,1.34,0,0,1,.07-.18l-.09.23" fill="none" clip-rule="evenodd"/></clipPath><clipPath id="0a980758-0153-4d0f-8ef0-1ec71973726d"><path d="M-392.36,166.17a1.73,1.73,0,0,1-1-.31,1.72,1.72,0,0,1-.41-2.39c3.05-4.28,6.75-6.7,11-7.18,7.53-.86,13.9,4.73,14.17,5a1.71,1.71,0,0,1,.14,2.42,1.72,1.72,0,0,1-2.42.15c-.05,0-5.52-4.81-11.52-4.13-3.24.38-6.13,2.32-8.58,5.76a1.7,1.7,0,0,1-1.4.72" fill="none" clip-rule="evenodd"/></clipPath><linearGradient id="1e406d96-e947-41ef-97b7-0a1d86f9b218" x1="8.37" y1="190.79" x2="8.37" y2="150.75" gradientUnits="userSpaceOnUse"><stop offset="0" stop-color="#fff"/><stop offset="1" stop-color="#dac1af"/></linearGradient><linearGradient id="4eb02783-ba6a-4fe9-a4ab-a4ba9a62d159" x1="-869.61" y1="190.79" x2="-869.61" y2="150.75" gradientTransform="matrix(-1, 0, 0, 1, -442.82, 0)" gradientUnits="userSpaceOnUse"><stop offset="0" stop-color="#fff"/><stop offset="1" stop-color="#d8b79f"/></linearGradient><clipPath id="7a8f1a6d-38ac-4ee8-8d6c-00cba812bd5f"><path d="M164.59,48.1c.14.11.28.24.42.37C161.93,83,73.43,53.72,51.93,51.54s22.87,57,6.4,65.92S46,178.59,46,178.59H31.52V150.73H25.66s-3.88-4.86-7.66-4.59h-.21l-.15,0-.19,0-.18,0a4.51,4.51,0,0,0-2.16,1.34l-.15.17-.16.19a8.46,8.46,0,0,0-.61.85c0,.08-.09.16-.14.24-.19.34-.38.7-.56,1.1-.09.19-.17.38-.26.6l0,0H1.72v-21C1.72,73.62,33.6,28.06,89.86,28.06h21.73c.69,0,1.38,0,2.06,0,.85,0,1.69.06,2.54.1l1.48.1.35,0,1.47.13,1,.11c.26,0,.51.05.76.09s.77.09,1.15.15.62.07.92.12l1,.16.79.13c.33.06.66.11,1,.18l1,.19.82.17,1.16.25.86.19.59.15c.44.1.87.21,1.31.33l.42.11c.47.12.94.25,1.4.39,1.94.55,3.84,1.18,5.7,1.87l1.46.55,2.07.85,1.52.67c.48.21,1,.43,1.43.66l.69.33,1.37.68h0c.46.24.91.47,1.36.72l.72.38.81.45.94.54.52.31c.37.22.74.43,1.1.66l.39.24c.4.25.81.5,1.2.77,1.13.72,2.24,1.48,3.32,2.26l1.14.83q2.13,1.61,4.17,3.34c.31.26.62.53.92.81" fill="none" clip-rule="evenodd"/></clipPath><clipPath id="c2b8861e-f9d2-4a2c-ac3c-1e79e3ca053f"><rect x="-142" y="-3859.15" width="1440" height="5199" fill="none"/></clipPath><clipPath id="21391cc6-497c-4890-b0f3-180289612281"><path d="M31.52,150.73h0m-18.3.07h0l0,0a1.34,1.34,0,0,0,.07-.18,2.09,2.09,0,0,1-.08.23" fill="none" clip-rule="evenodd"/></clipPath><linearGradient id="065f08c3-1984-4903-a2a1-d9a474b28d79" x1="38.76" y1="180.6" x2="38.76" y2="149.02" gradientUnits="userSpaceOnUse"><stop offset="0" stop-color="#33302e"/><stop offset="1" stop-color="#dac1af"/></linearGradient></defs><title>travnlos-logo</title><circle cx="345.64" cy="164.42" r="4.89" fill="#fff"/><circle cx="270.85" cy="164.27" r="5.36" fill="#fff"/><polygon points="256.48 149.78 237.9 151.96 237.9 159.13 244.32 162.55 250.13 154.35 256.48 149.78" fill="#33302e"/><path d="M302.24,227.39a46.71,46.71,0,0,1-12.82-.95v4.17a6,6,0,0,1-12,0V218.48c6.15-.89,19.58-1.88,36.85,2.44v9.69a6,6,0,0,1-12,0v-3.22" fill="#eec7ab" fill-rule="evenodd"/><path d="M1.72,150.78l11.51,0S7,174.11,15,190.79h0A13.31,13.31,0,0,1,1.71,177.48Z" fill-rule="evenodd" fill="url(#1e406d96-e947-41ef-97b7-0a1d86f9b218)"/><path d="M434.76,150.78l-14.16,0s6.2,23.36-1.78,40h0a16,16,0,0,0,15.94-15.95Z" fill-rule="evenodd" fill="url(#4eb02783-ba6a-4fe9-a4ab-a4ba9a62d159)"/><path d="M90.15,162.55A5.15,5.15,0,1,1,93.79,161a5.14,5.14,0,0,1-3.64,1.51" fill="#fff" fill-rule="evenodd"/><path d="M166.73,231.55v.26c0,9.36-10.38,9.86-27.23,10.56,2.77-1,5.36-6.69,7.48-9.12l.57-2.42a25.11,25.11,0,0,1-26.84.58l-1-.58v1.74c1.29,1.64,2.79,4,4.41,6s3.37,3.79,5.19,4.25c-15.5-.4-27.27-1-27.45-9.85-.2-10.19,14.92-18.77,33.76-19.17s30.89,7.54,31.09,17.73" fill="#e6cab6" fill-rule="evenodd"/><path d="M102.79,228.55c3.37-7.83,15.87-13.93,31.12-14.67h3.51c14.83.11,25.14,5.5,28.29,13-8.42-4.81-18.8-4.91-30-4.91-12.54,0-24,.8-32.89,6.66" fill="#dfbea8" fill-rule="evenodd"/><path d="M420.42,150.86c1.37,3.5,2.28,9.3,2.28,18.55,0,37.18-18.35,23.11-18.35,23.11h-.23l-.8-36.86v0l1.57-.15,3.07-4.74s8.33-10.44,12.47.13" fill="#eec7ab" fill-rule="evenodd"/><path d="M415.72,70.75h0c-1.62-2.29-3.34-4.49-5.14-6.62h0c-28.09-28.07-43.63-.58-43.95,0H325.81c-20.24,0-23.44,8.46-23.44,8.46h-.13s-3.2-8.46-23.44-8.46H268.7a17.71,17.71,0,0,1,5.08-12.42A101.58,101.58,0,0,1,346.5,21.2c22.8,0,39,5.12,53.95,20.12,9.61,9.66,10.85,17.2,15.27,29.43" fill="#33302e" fill-rule="evenodd"/><path d="M412.17,17c2.88.77-10.77,3.61-14.43,9.61-4.3-2.33-7.42-5.74-12.07-7.44,0,0,4.54-14,2.75-15.88s7.27,4.86,7.27,4.86l10.37-6.42L404,13.32,412.17,17" fill="#493d3b" fill-rule="evenodd"/><polyline points="407.95 150.73 404.88 155.47 403.31 155.62 390.27 156.8 364.56 159.13 364.56 152.51 390.35 151.45 407.95 150.73" fill="#33302e" fill-rule="evenodd"/><path d="M314.25,220.92c-17.27-4.32-30.7-3.33-36.85-2.44v12.13a6,6,0,0,0,12,0v-4.17a46.71,46.71,0,0,0,12.82.95v3.22a6,6,0,0,0,12,0v-9.69m-52.63,3.71c1.55-6.19,7.74-21.61,30.79-21.24,26.15.41,40.81,9.85,43.3,27.64h.38c58.32,0,54.19-45.69,54.19-45.69V156.8l13-1.18v0l1.56,72c0,2.21,0,4.42-.12,6.61,0,0-.58,39.21,3.13,49.55l-10.62-3.26a186.82,186.82,0,0,1-339,43.26l-5,11.4a324.07,324.07,0,0,0-11.64-47,186.14,186.14,0,0,1-10.06-60.56v-49H46v6.07a32.81,32.81,0,0,0,22.78,31.39c7,2.19,16,2.94,27.73.88,19.77-3.49,18.76-13.72,43.53-12.18s19.45,12.21,35.19,8.4c22-5.32,16.5-46.34,16.5-46.34,0-3.25,5.48,3.65,5.48,7.05v58.75a21,21,0,0,0,21.57,20.95,21.24,21.24,0,0,0,20.39-21.38V173.86a7.25,7.25,0,0,1,5.17-7v.39a21.3,21.3,0,0,0,.27,3.41c0,11.68,1.05,51.58,16.54,53.92h.48m-94.89,7.18v-.26c-.2-10.19-12.25-18.12-31.09-17.73s-34,9-33.76,19.17c.18,8.88,12,9.45,27.45,9.85-1.87-.05-3.57-2.21-5.19-4.25s-3.12-4.38-4.41-6v-1.74l1,.58a25.11,25.11,0,0,0,26.84-.58l-.57,2.42c-2.12,2.43-4.23,8.35-7.48,9.12,13.06-.52,27.23-1.2,27.23-10.56" fill="#33302e" fill-rule="evenodd"/><path d="M390.35,134.4v17l-25.79,1.06-3.06-.63a116.67,116.67,0,0,0-23.28-2.35H336c-7.56,0-14.21,2.22-18.15,6.83a80,80,0,0,0-33.46,0l-.19-.21c-4-4.47-10.53-6.62-18-6.62H264a115,115,0,0,0-19.35,1.63v-5.27c13.69-7.31,43.83.39,43.83.39a2.39,2.39,0,0,0,.63-4.69,13.23,13.23,0,0,1-1.62-.51l-18.88-5.76-1.15-.4A16.49,16.49,0,0,0,254.28,136l-9.65,5.23v-11.4a101.4,101.4,0,0,1,24.07-65.7h10.1c20.24,0,23.44,8.46,23.44,8.46h.13s3.2-8.46,23.44-8.46h40.81l14.74,3.19-10.29,56.34,19.28,10.73M362.81,147c1.72-.7,2.1-2.49.76-3.59l-.76-.62-11.64-6.62a23.08,23.08,0,0,0-14.76-.94l-1.3.34-22.29,6.27a17.89,17.89,0,0,1-1.82.44,2.27,2.27,0,0,0-2,2,2.44,2.44,0,0,0,2.68,2.1s34.79-8.09,51.1.59" fill="#eec7ab" fill-rule="evenodd"/><path d="M287.64,171.83a21.82,21.82,0,0,0,.47-4.53c0-.22,0-.44,0-.66s0-.24,0-.36a2.44,2.44,0,0,0,0-.27v-1.23c0-5.17,5.83-7.89,13-7.89s13,2.72,13,7.89h.11a18.58,18.58,0,0,0-.16,2.51,21.9,21.9,0,0,0,43.79,0v-1.49a6.67,6.67,0,0,1,6.69-6.68l25.72-2.33v28.54S394.41,231,336.09,231h-.38c-2.49-17.79-17.15-27.23-43.3-27.64-23.05-.37-29.24,15.05-30.79,21.24h-.48c-15.49-2.34-16.56-42.24-16.54-53.92a21.9,21.9,0,0,0,43,1.12" fill="#eec7ab" fill-rule="evenodd"/><path d="M364.56,152.51v6.62a6.67,6.67,0,0,0-6.69,6.68v1.49c0-12.08-9.81-17.77-21.89-17.77h2.24a116.67,116.67,0,0,1,23.28,2.35l3.06.63" fill="#4e3f3b" fill-rule="evenodd"/><path d="M363.57,143.37c1.34,1.1,1,2.89-.76,3.59-16.31-8.68-51.1-.59-51.1-.59a2.44,2.44,0,0,1-2.68-2.1,2.27,2.27,0,0,1,2-2,17.89,17.89,0,0,0,1.82-.44l22.29-6.27,1.3-.34a23.08,23.08,0,0,1,14.76.94l11.64,6.62.76.62" fill="#33302e" fill-rule="evenodd"/><path d="M317.83,156.36a15.61,15.61,0,0,0-3.59,8.43h-.11c0-5.17-5.84-7.89-13-7.89s-13,2.72-13,7.89V166c0-.13,0-.25,0-.37s0-.52-.07-.76q-.09-.74-.24-1.44l-.06-.33c-.06-.24-.11-.48-.18-.71s-.08-.31-.13-.46a2.58,2.58,0,0,0-.08-.26l0-.11-.17-.49c-.09-.26-.2-.51-.3-.77s-.16-.37-.25-.55a13.74,13.74,0,0,0-1.32-2.27,3.18,3.18,0,0,0-.27-.37c-.14-.19-.29-.37-.44-.55l-.13-.17a80,80,0,0,1,33.46,0" fill="#4e3f3b" fill-rule="evenodd"/><path d="M289.09,141.59a2.39,2.39,0,0,1-.63,4.69s-30.14-7.7-43.83-.39A15.72,15.72,0,0,0,242.9,147v-4.79l1.73-.94,9.65-5.23a16.49,16.49,0,0,1,13.16-1.08l1.15.4,18.88,5.76a13.23,13.23,0,0,0,1.62.51" fill="#33302e" fill-rule="evenodd"/><path d="M191.72,166.81s5.48,41-16.5,46.34c-15.74,3.81-10.41-6.86-35.19-8.4s-23.76,8.69-43.53,12.18c-11.69,2.06-20.74,1.31-27.73-.88A32.81,32.81,0,0,1,46,184.66v-6.07s-4.12-52.22,12.34-61.13-27.89-68.11-6.4-65.92S161.93,83,165,48.47a79.75,79.75,0,0,1,26.66,59.39l-.2,32.37c-6,9.72.25,26.58.25,26.58m-4.54-24.38a2.46,2.46,0,0,0,3.18-3.64l-.11-.15s-7.4-9.57-17-7.4-21.12,7.51-21.12,7.51v.06a3.32,3.32,0,0,0,4.29,4l.21-.08c-3.29,2.43,9.77-3.28,20.57-3.28,3.94,0,7.58.76,10,3M168.65,161a5.14,5.14,0,1,0-7.27,0,5.14,5.14,0,0,0,7.27,0M116.1,145.93a3.73,3.73,0,0,0,4.18-5.12l0-.06s-18-9.72-29-10.69-23.33,12.76-23.33,12.76l-.1.18a2.75,2.75,0,0,0,4.07,3.56c4.58-5.34,11.2-7.1,17.92-7.1,12.85,0,26.07,6.42,26.07,6.42l.23.05M93.79,161a5.14,5.14,0,1,0-7.28,0,5.14,5.14,0,0,0,7.28,0" fill="#e6cab6" fill-rule="evenodd"/><g clip-path="url(#7a8f1a6d-38ac-4ee8-8d6c-00cba812bd5f)"><g clip-path="url(#c2b8861e-f9d2-4a2c-ac3c-1e79e3ca053f)"><rect x="-3.28" y="23.06" width="173.3" height="160.53" fill="#e6cab6"/></g></g><path d="M31.52,178.59v12.2L30,192.52s-19,14.07-19-23.11c0-2.36.06-4.49.17-6.42,0-.39.05-.77.07-1.15.16-2.11.37-4,.64-5.58.06-.34.12-.68.18-1,.1-.51.2-1,.31-1.44l.21-.81.12-.42.21-.67c0-.16.1-.31.15-.46s.13-.37.2-.55l0-.12,0,0,.26-.6c.18-.4.37-.76.56-1.1,0-.08.1-.16.14-.24a8.46,8.46,0,0,1,.61-.85l.16-.19.15-.17a4.51,4.51,0,0,1,2.16-1.34l.18,0,.19,0,.15,0H18c3.78-.27,7.66,4.59,7.66,4.59h5.86v27.86" fill="#e6cab6" fill-rule="evenodd"/><path d="M434.64,130.51a103.63,103.63,0,0,0-18.93-59.76c-1.62-2.29-3.34-4.49-5.14-6.62h0c-28.09-28.07-43.63-.58-43.95,0h-.24c-.75,1.06-1.14,1.75-1.14,1.75l8.45.57A31.64,31.64,0,0,1,381.24,68l-4.58,25.08-5.5,8.62,3.12,4.43v0l-3.21,17.55L387.89,133a69.31,69.31,0,0,1,2.44,16.55c0,.62,0,1.25,0,1.87l17.6-.72s8.33-10.44,12.47.13l.14-.05h14.2Z" fill="#d8b79f"/><path d="M265.57,149.54h0m.65,39.63H265a21.67,21.67,0,0,1-6.45-1.34h-.17a21.89,21.89,0,0,1-13.8-17c-.06-.36-.11-.73-.15-1.1a20.73,20.73,0,0,1-.12-2.24h0v0h0v-.07h0v0h0a20.17,20.17,0,0,1,.29-3.38,12.09,12.09,0,0,1,.77-2.86l37,21a21.84,21.84,0,0,1-15.08,7.13h-1.11" fill="#f1d3bb" fill-rule="evenodd"/><path d="M335.21,149.54h0m-.1,0h0m.87,39.63a21.89,21.89,0,0,1-20.9-15.34,28.07,28.07,0,0,1-.89-4.35c-.07-.72-.11-1.45-.11-2.18v-.07h0c0-.66,0-1.29.1-1.91a5.06,5.06,0,0,1,.06-.53,18.8,18.8,0,0,1,.33-1.9,8.67,8.67,0,0,1,.47-1.63l36.91,21a21.71,21.71,0,0,0,5.91-14.57A21.88,21.88,0,0,1,336,189.17" fill="#f1d3bb" fill-rule="evenodd"/><path d="M271.34,159.12a5.15,5.15,0,1,0,3.64,1.51,5.12,5.12,0,0,0-3.64-1.51M282.41,182l-37-21c2.78-7.57,10.73-11.27,20.18-11.43h1a27.09,27.09,0,0,1,14,3.54l0,0h0a16.27,16.27,0,0,1,4,3.41l0,0a6,6,0,0,1,.39.49l.09.11.23.32.36.53a14.6,14.6,0,0,1,1,1.87l.15.33c0,.08.07.17.11.26l.08.19.2.54.12.36,0,.11v0c.1.31.19.62.27.94,0,.15.07.3.11.46l.06.33q.15.71.24,1.44c0,.24,0,.5.07.76a.09.09,0,0,1,0,.05c0,.09,0,.18,0,.27v1.38l-.43,4.53A21.82,21.82,0,0,1,282.41,182" fill="#f4dac5" fill-rule="evenodd"/><path d="M346.21,159.12a5.15,5.15,0,0,0,0,10.29,5.15,5.15,0,0,0,0-10.29M352,182.24l-36.91-21c2.66-7.71,10.59-11.5,20.07-11.72H336c12.08,0,21.89,5.69,21.89,17.77v.07h0v0h0v.06h0v.06h0v0h0v0h0v0h0A21.71,21.71,0,0,1,352,182.24" fill="#f4dac5" fill-rule="evenodd"/><path d="M46,151.32v-2.13H31.52v1.54H25.66s-3.62-4.83-7.3-4.83c-1.77,0-3.55,1.12-5,4.44a.69.69,0,0,0-.05.13l-.12.28,0,0H1.72V129.83C1.72,74,33.19,28.64,88.79,28.07h22.8c.56,0,3.75.09,4.6.13l1.35.09s10.83,12.5,20.38,36.85c-1,0-2.09.05-3.15.05h0c-12,0-26.07-2.15-39.38-4.75-18.33-3.58-35.22-8-43.23-8.87h-.21a10.71,10.71,0,0,0-1.1-.06c-3.54,0-4.91,2-4.91,5.36,0,11.49,16.17,38.57,16.17,52.74a11.11,11.11,0,0,1-1,5.1h0a6.46,6.46,0,0,1-2.57,2.69l-.15.08C50.11,121.91,47,137.16,46,151.32" fill="#dac1af" fill-rule="evenodd"/><g clip-path="url(#21391cc6-497c-4890-b0f3-180289612281)"><g clip-path="url(#c2b8861e-f9d2-4a2c-ac3c-1e79e3ca053f)"><rect x="8.21" y="145.57" width="28.3" height="10.22" fill="#dac1af"/></g></g><path d="M261.14,224.63h0c-17.76-5.56-15.75-48.75-15.75-48.75a23.3,23.3,0,0,0,15.75,13.28,38.2,38.2,0,0,0,4,.22c18.48,0,22.2-14.72,22.2-14.72l-.59,12.81c-11.32.46-4.81,10.19-4.81,10.19-21.11,4.64-20.83,27-20.83,27" fill="#e8bc9b" fill-rule="evenodd"/><path d="M335.71,231h0c-3.26-26.58-35.57-27.23-35.57-27.23v-5.16h6l3.25,1a7.59,7.59,0,0,0,2.22.32,7.08,7.08,0,0,0,4.66-1.69,5.4,5.4,0,0,0,2-4.86,6.37,6.37,0,0,0-4.38-5.24l-.07,0,.52.13a8.84,8.84,0,0,0-.88-.25l-7.29-2.44.27-28.1a16.48,16.48,0,0,1,2.49.77l4.62,3.86a5.68,5.68,0,0,1,.57,2v4.46c0,.33.07.66.11,1a21.66,21.66,0,0,0,.89,4.35c4.34,15,19.49,15.34,19.49,15.34l-12.17,1.39.72,1.45c1.21,2.41,2.61,4.81,4.09,7.27a53.65,53.65,0,0,1,7.44,21.95l1.06,9.8" fill="#e8bc9b" fill-rule="evenodd"/><path d="M165,152.27a5.14,5.14,0,1,0,3.64,1.5,5.13,5.13,0,0,0-3.64-1.5" fill="#dfbea8" fill-rule="evenodd"/><path d="M169.61,214c-1.86-.4-5.34-1.64-11.82-4.94-.35-.19-.71-.37-1.09-.56a35.34,35.34,0,0,0-9.32-2.88,48.47,48.47,0,0,0-6.27-.84l.2-6.11s12.49-6.41,4-15.7-10.35-34.53-5.46-36.81a112.51,112.51,0,0,0,12.2-7.32v0h0v.05h0a3.32,3.32,0,0,0,3.2,4.13h0c.35,0,.67.33,1,.33,1.54,0,12-3.88,20.89-3.88h.11a27.91,27.91,0,0,1,6.55,1,10.19,10.19,0,0,1,3.37,2h0a2.52,2.52,0,0,0,1,.33,8.35,8.35,0,0,1,.6.59,57.31,57.31,0,0,0,0,6.42c-.36,8.45,2.84,17,2.84,17a89.76,89.76,0,0,1,.61,10.79c0,6.54-.66,15-3.38,22-2.14,5.14-5.26,9.49-9.67,12a16.81,16.81,0,0,1-4.06,1.53,31.87,31.87,0,0,1-3.47.66h0a18.81,18.81,0,0,1-2.14.16" fill="#dfbea8" fill-rule="evenodd"/><path d="M191.47,140.23c-3.81-7.59-9.75-10.06-15.87-10.06-10.57,0-21.68,7.37-23.31,8.49l-.2.09v.06c-.69-30.93-7.07-55.58-14.16-73.68,15-.51,26-4.85,27.09-16.66a79.79,79.79,0,0,1,26.66,58.69l-.2,33.07" fill="#e3c4b0" fill-rule="evenodd"/><path d="M137.92,65.13c-9.55-24.35-20.38-36.85-20.38-36.85a100.85,100.85,0,0,1,12.81,2l.26.07c.44.1.87.21,1.31.33l.42.11c.47.12.94.25,1.4.39,1.94.55,3.84,1.18,5.7,1.87l.62.23.58.22.26.1,2.07.85.9.39.21.09.41.19c.48.21,1,.43,1.43.66l.22.1.22.11.25.12.5.24.88.45h0c.46.24.91.47,1.36.72l.37.19.13.07.22.12.81.45.94.54.52.31c.37.22.74.43,1.1.66l.39.24c.4.25.81.5,1.2.77,1.13.72,2.24,1.48,3.32,2.26l1.14.83q2.13,1.61,4.17,3.34c.31.26.62.53.92.81.14.11.28.24.42.37-1,11.81-12.13,16.15-27.09,16.66" fill="#d7bba9" fill-rule="evenodd"/><path d="M244.63,141.23v-11.4a101.41,101.41,0,0,1,24-65.63l.06-.06,22.15,1.29C268.5,104.09,277.41,138,277.41,138a29,29,0,0,0-14.9-4.47,25.44,25.44,0,0,0-17.87,7.68h0" fill="#e8bc9b" fill-rule="evenodd"/><path d="M302.37,72.6A18.38,18.38,0,0,0,287,64.1c-.53,0-.82,0-.82,0H268.7c0-.24,0-.48,0-.71a17.73,17.73,0,0,1,5.07-11.72,118.32,118.32,0,0,1,19.61-15.6A101.52,101.52,0,0,1,346.5,21.2q3.75,0,7.26.19c-59.68,8.6-51.41,51.1-51.39,51.21" fill="#2a2726" fill-rule="evenodd"/><path d="M90.15,152.27a5.14,5.14,0,1,0,3.64,1.5,5.13,5.13,0,0,0-3.64-1.5M121.94,176c-2.25,0-4.4-4.82-4.4-13.4a2.08,2.08,0,0,0-2.39-2.32c-4.66,0-14.9,6.61-18.93,8.27-3.27,1.36-9.88,7-16.7,7-4.19,0-8.47-2.12-12.1-8.65-4.87-8.74-1.63-15.28,3-19.65a2.71,2.71,0,0,0,1.47-.6,18.88,18.88,0,0,1,3.24-3,31.91,31.91,0,0,1,6.12-3l.41-.12.14,0a30.12,30.12,0,0,1,8-1c11.29,0,22.87,5,25.51,6.16.85.42,1.73.87,2.62,1.34,0,0,15.53,1.92,7.21,25.22-.92,2.56-2.07,3.77-3.2,3.77" fill="#dfbea8" fill-rule="evenodd"/><path d="M314.25,226.38A60,60,0,0,0,291.6,222a60.67,60.67,0,0,0-14.2,1.68v-5.2h.06l1.32-.18a83.43,83.43,0,0,1,10.08-.58,105,105,0,0,1,25.39,3.22v5.45" fill="#e8bc9b" fill-rule="evenodd"/><polyline points="148.32 293.38 136.33 293.38 136.33 282.13 172.89 282.13 172.89 293.38 160.91 293.38 160.91 329.37 148.32 329.37 148.32 293.38" fill="#fe6aff" fill-rule="evenodd"/><path d="M201.66,329.37l-8.92-14.44h-2.93v14.44H177.55V282.14h18.92c11.92,0,17.24,7.05,17.24,16.76,0,6.92-3,11.64-8.05,14V313l10.72,16.37ZM189.81,304h3.86c4,0,6.92-1.86,6.92-5.39,0-2.92-2.33-5.38-6.92-5.38h-3.86Z" fill="#fe6aff" fill-rule="evenodd"/><path d="M247.61,321.72H232.42l-2.4,7.65H216.77L234,282.14h12.12l17.12,47.23H250Zm-3.27-10.58-4.26-13.64H240l-4.27,13.64Z" fill="#fe6aff" fill-rule="evenodd"/><polyline points="303.08 282.13 285.83 329.37 274.71 329.37 257.39 282.13 271.18 282.13 280.17 311.34 280.3 311.34 289.43 282.13 303.08 282.13" fill="#fe6aff" fill-rule="evenodd"/><polyline points="177.19 334.8 189.9 334.8 189.9 370.79 208.68 370.79 208.68 382.03 177.19 382.03 177.19 334.8" fill="#38beff" fill-rule="evenodd"/><path d="M210.61,358.42c0-14.37,10.06-24.35,24.58-24.35s24.57,9.84,24.57,24.35-10.19,24.28-24.57,24.28S210.61,372.79,210.61,358.42Zm35.9,0c0-6.92-4.6-12.51-11.32-12.51s-11.39,5.52-11.39,12.51,4.73,12.5,11.39,12.5S246.51,365.4,246.51,358.42Z" fill="#38beff" fill-rule="evenodd"/><path d="M262.22,375.12l7.19-8.79c3.73,3.8,7.86,5.26,10.79,5.26s4.06-1.6,4.06-3.06c0-1.86-.93-2.86-6-4.52-7.19-2.47-14.38-5.93-14.38-15.57,0-8.05,6.72-14.11,15.78-14.31a24.25,24.25,0,0,1,16.71,6.32l-7,9c-4.13-3.19-6.66-4.25-9-4.25s-3.33,1.13-3.33,2.79,1,2.86,5.8,4.72c8.39,3.2,14.71,5.26,14.71,14.38,0,11.84-9.92,15.63-17.84,15.63a24.39,24.39,0,0,1-17.52-7.58" fill="#38beff" fill-rule="evenodd"/><path d="M156.5,346.85H152l-.71,2.29h-3.95l5.12-14.09H156l5.1,14.09h-3.93Zm-1-3.15-1.27-4.07h0l-1.27,4.07Z" fill="#fff" fill-rule="evenodd"/><polyline points="160.73 351.6 160.73 365.68 156.82 365.68 152.19 357.97 152.15 357.97 152.15 365.68 148.4 365.68 148.4 351.6 152.19 351.6 156.9 359.53 156.96 359.53 156.96 351.6 160.73 351.6" fill="#fff" fill-rule="evenodd"/><path d="M148.4,368.14h5.08c4.45,0,7.31,2.9,7.31,7.07s-2.68,7-7.25,7H148.4Zm4.88,10.74a3.51,3.51,0,0,0,3.56-3.67,3.45,3.45,0,0,0-3.28-3.71h-1.51v7.38Z" fill="#fff" fill-rule="evenodd"/><rect x="146.87" y="269.53" width="9.84" height="1.18" fill="#fff"/><polyline points="162.94 265.78 164.43 265.78 164.43 271.94 167.76 271.94 167.76 273.26 162.94 273.26 162.94 265.78" fill="#fff" fill-rule="evenodd"/><path d="M174.42,271.76h-2.88l-.5,1.5h-1.56l2.78-7.48h1.42l2.8,7.48h-1.55ZM174,270.5l-1-2.94h0l-1,2.94Z" fill="#fff" fill-rule="evenodd"/><polyline points="179.45 267.11 177.38 267.11 177.38 265.78 183 265.78 183 267.11 180.92 267.11 180.92 273.26 179.45 273.26 179.45 267.11" fill="#fff" fill-rule="evenodd"/><polyline points="185.19 265.78 189.98 265.78 189.98 267.11 186.65 267.11 186.65 268.9 189.31 268.9 189.31 270.2 186.65 270.2 186.65 271.94 190.2 271.94 190.2 273.26 185.19 273.26 185.19 265.78" fill="#fff" fill-rule="evenodd"/><polyline points="202.73 265.78 202.73 273.26 201.21 273.26 197.91 268.3 197.88 268.3 197.88 273.26 196.41 273.26 196.41 265.78 197.88 265.78 201.23 270.84 201.24 270.84 201.24 265.78 202.73 265.78" fill="#fff" fill-rule="evenodd"/><rect x="205.48" y="265.78" width="1.49" height="7.48" fill="#fff"/><path d="M209.42,269.53a3.62,3.62,0,0,1,3.77-3.85,4,4,0,0,1,3,1.29l-1,.88a2.74,2.74,0,0,0-1.92-.77,2.23,2.23,0,0,0-2.22,2.45,2.26,2.26,0,0,0,2.28,2.44,2.8,2.8,0,0,0,1.52-.42v-1.1h-1.69v-1.27h3.11v3.23a4.9,4.9,0,0,1-2.94.92,3.61,3.61,0,0,1-3.83-3.8" fill="#fff" fill-rule="evenodd"/><polyline points="218.73 265.78 220.22 265.78 220.22 269.01 223.29 269.01 223.29 265.78 224.77 265.78 224.77 273.26 223.29 273.26 223.29 270.34 220.22 270.34 220.22 273.26 218.73 273.26 218.73 265.78" fill="#fff" fill-rule="evenodd"/><polyline points="229.03 267.11 226.96 267.11 226.96 265.78 232.58 265.78 232.58 267.11 230.51 267.11 230.51 273.26 229.03 273.26 229.03 267.11" fill="#fff" fill-rule="evenodd"/><path d="M234.3,272.16l.88-1.09a2.55,2.55,0,0,0,1.87.94c.72,0,1.08-.33,1.08-.79s-.41-.75-1.31-1.06c-1.13-.4-2.26-.93-2.26-2.34a2.27,2.27,0,0,1,2.41-2.14,3.86,3.86,0,0,1,2.52.95l-.86,1.12A2.64,2.64,0,0,0,237,267c-.52,0-.9.27-.9.75s.4.66,1.26,1c1.29.51,2.32.84,2.32,2.29a2.39,2.39,0,0,1-2.65,2.29,3.71,3.71,0,0,1-2.73-1.18" fill="#fff" fill-rule="evenodd"/><polyline points="255.62 265.78 253.26 273.26 251.89 273.26 250.48 267.94 250.45 267.94 249 273.26 247.64 273.26 245.27 265.78 246.85 265.78 248.31 270.84 248.33 270.84 249.66 265.78 251.23 265.78 252.56 270.84 252.57 270.84 254.04 265.78 255.62 265.78" fill="#fff" fill-rule="evenodd"/><rect x="257.83" y="265.78" width="1.49" height="7.48" fill="#fff"/><polyline points="263.62 267.11 261.56 267.11 261.56 265.78 267.18 265.78 267.18 267.11 265.1 267.11 265.1 273.26 263.62 273.26 263.62 267.11" fill="#fff" fill-rule="evenodd"/><polyline points="269.37 265.78 270.85 265.78 270.85 269.01 273.92 269.01 273.92 265.78 275.41 265.78 275.41 273.26 273.92 273.26 273.92 270.34 270.85 270.34 270.85 273.26 269.37 273.26 269.37 265.78" fill="#fff" fill-rule="evenodd"/><rect x="281.64" y="269.53" width="9.84" height="1.18" fill="#fff"/><path d="M120.28,140.81a3.73,3.73,0,0,1-4.18,5.12l-.23-.05s-13.22-6.42-26.07-6.42c-6.72,0-13.34,1.76-17.92,7.1A2.75,2.75,0,0,1,67.81,143l.1-.18s12.29-13.74,23.33-12.76,29,10.69,29,10.69l0,.06" fill="#383231" fill-rule="evenodd"/><path d="M190.36,138.79a2.46,2.46,0,0,1-3.18,3.64c-2.45-2.19-6.09-3.12-10-3a93.23,93.23,0,0,0-21.35,3.88c-2.53.89-4.45-2-3.72-4.55v-.06s11.48-5.34,21.12-7.51,17,7.4,17,7.4l.11.15" fill="#383231" fill-rule="evenodd"/><rect x="31.52" y="149.02" width="14.48" height="31.58" fill="url(#065f08c3-1984-4903-a2a1-d9a474b28d79)"/><path d="M165,162.55a5.15,5.15,0,1,1,3.64-1.51,5.14,5.14,0,0,1-3.64,1.51" fill="#fff" fill-rule="evenodd"/><path d="M363.9,141.43a1.67,1.67,0,0,0-.24-.16L352,134.65l-.18-.09a24.94,24.94,0,0,0-15.88-1l-23.6,6.62-.08,0a10.77,10.77,0,0,1-1.33.33l-.31.07a3.94,3.94,0,0,0-3.32,3.7,4.14,4.14,0,0,0,4.39,3.81,1.74,1.74,0,0,0,.39-.05c.34-.08,34.34-7.84,49.9.45a1.76,1.76,0,0,0,.81.2,1.64,1.64,0,0,0,.65-.13,4,4,0,0,0,2.59-3.09,3.71,3.71,0,0,0-1.4-3.42ZM362.66,145c-5.92-2.82-13.76-3.75-21.54-3.75a148.92,148.92,0,0,0-29.57,3.42,1.09,1.09,0,0,1-.81-.36.88.88,0,0,1,.62-.36l.3-.06c.54-.12,1.1-.24,1.66-.42l22.24-6.25,1.29-.35a21.38,21.38,0,0,1,13.56.84l11.43,6.49.64.53c.12.09.19.2.18.26Z" fill="#1a1919" fill-rule="evenodd"/><path d="M338.17,176.7a11.94,11.94,0,0,0,14.95,0A1.71,1.71,0,0,0,351,174a8.52,8.52,0,0,1-10.65,0,1.71,1.71,0,0,0-2.41.26A1.72,1.72,0,0,0,338.17,176.7Z" fill="#1a1919" fill-rule="evenodd"/><path d="M285.14,196.92H285a2.07,2.07,0,0,0-.49.07,1.33,1.33,0,0,1-.92-.22c-.81-.51-1.42-1.87-1.72-3.81a1.73,1.73,0,0,0-2-1.44,1.71,1.71,0,0,0-1.43,2c.46,3,1.57,5.11,3.27,6.19a4.87,4.87,0,0,0,2.6.75,4.34,4.34,0,0,0,.83-.07h4.23a1.72,1.72,0,0,0,1.14-3L287.86,195a1.71,1.71,0,0,0-2.72,1.92Z" fill="#1a1919" fill-rule="evenodd"/><path d="M298.35,200.35h7.78a1.72,1.72,0,0,0,0-3.43h-7.78a1.72,1.72,0,0,0,0,3.43Z" fill="#1a1919" fill-rule="evenodd"/><path d="M312.14,198.7a1.72,1.72,0,1,0,0,3.43,8,8,0,0,0,8-8,6.28,6.28,0,0,0,0-.75A26.58,26.58,0,0,1,327,203.79a1.71,1.71,0,0,0,1.59,1.08,1.76,1.76,0,0,0,.63-.12,1.71,1.71,0,0,0,1-2.22c-4.53-11.48-11.6-14.92-15.38-15.95a7.87,7.87,0,0,0-2.62-.44,1.7,1.7,0,0,0-1.71,1.68,1.72,1.72,0,0,0,1.66,1.75,7.9,7.9,0,0,1,1.56.25,4.57,4.57,0,0,1-1.51,8.88Z" fill="#1a1919" fill-rule="evenodd"/><path d="M275.78,174a8.5,8.5,0,0,1-10.64,0A1.71,1.71,0,1,0,263,176.7a11.92,11.92,0,0,0,14.94,0,1.71,1.71,0,0,0-2.15-2.67Z" fill="#1a1919" fill-rule="evenodd"/><path d="M258.54,165.86a1.71,1.71,0,0,0,1,.31,1.73,1.73,0,0,0,1.4-.72,16.41,16.41,0,0,1,3.44-3.62,6.86,6.86,0,1,0,12.53-.65,20.57,20.57,0,0,1,4.13,2.64,1.72,1.72,0,0,0,2.28-2.57c-.27-.23-6.65-5.82-14.17-5-4.26.48-8,2.9-11,7.18A1.71,1.71,0,0,0,258.54,165.86Zm10.52.12a3.43,3.43,0,0,0,3.13-4.83,3.42,3.42,0,1,1-4.53,4.52A3.45,3.45,0,0,0,269.06,166Z" fill="#1a1919" fill-rule="evenodd"/><path d="M417.29,70,417,69c-3-10.28-5.8-20-15.39-29-1.51-1.41-3-2.72-4.56-4l2.27-8.77c2-3,7.43-5.36,10.7-6.76,3.08-1.31,4.36-1.85,4.24-3.43a2,2,0,0,0-1.5-1.75l-6.84-3.06L407.76,2a1.72,1.72,0,0,0-2.6-1.75L395.88,6c-6.6-5.81-7.47-5.23-8.39-4.62a2,2,0,0,0-.7,2.44c1.36,4-1.29,11.48-2.56,14.36l-6.33,6.47c-9.12-3.55-19.25-5.16-31.4-5.16a102.86,102.86,0,0,0-73.95,31,19.35,19.35,0,0,0-5.56,13,103.47,103.47,0,0,0-24.07,66.33v10.38l-.83.45a1.72,1.72,0,0,0-.84,1.05,1.76,1.76,0,0,0-.06.46V147a1.61,1.61,0,0,0,.06.44.84.84,0,0,0,.06.14,1.53,1.53,0,0,0,.11.27.76.76,0,0,0,.11.14,1.16,1.16,0,0,0,.16.21l.15.12.12.11s.06,0,.08,0l.08.05.19.07.14.05a1.59,1.59,0,0,0,.37.06h.06v1c-.85.15-1.69.31-2.53.48l-3.06.63a1.7,1.7,0,0,0-1.37,1.67v6.63a1.72,1.72,0,0,0,1.71,1.71,5,5,0,0,1,5,4.86,9.08,9.08,0,0,0-5.2,8.16v58.32c0,10.55-8.39,19.35-18.69,19.63A19.21,19.21,0,0,1,199,232.61V173.86c0-2.86-3.43-8.91-6.25-9.58-1.36-4.55-4.15-16.09.23-23.14l0-.11a.89.89,0,0,0,.08-.17,2.87,2.87,0,0,0,.09-.32.55.55,0,0,0,0-.18.5.5,0,0,0,0-.12l.19-32.38a81.88,81.88,0,0,0-81.79-81.51H89.85c-27.28,0-50.27,10.52-66.49,30.44C8.29,75.27,0,101.21,0,129.83v39.8a1.72,1.72,0,0,0,3.43,0v-39.8c0-27.83,8-53,22.59-70.88C41.56,39.86,63.64,29.77,89.85,29.77h21.74A78.45,78.45,0,0,1,190,107.85l-.17,28c-2.85-2.86-9.14-7.86-16.9-6.11-9.68,2.17-20.95,7.39-21.42,7.61l-.64.35-.19.66a5.6,5.6,0,0,0,1.42,5.48,4.08,4.08,0,0,0,2.82,1.15,4.24,4.24,0,0,0,1.39-.24,93,93,0,0,1,21-3.81c3.75-.17,6.93.75,9,2.56l.25.18a3.9,3.9,0,0,0,1.53.51c-2.45,9.29,1.27,20.66,2,22.83.1.71,4.95,39.52-15.18,44.39-7.08,1.72-9.23.35-12.77-1.91-3.78-2.42-9-5.73-21.9-6.54-15.07-.93-21,2.41-27.38,5.95a47,47,0,0,1-16.57,6.25c-10.31,1.83-19.36,1.55-26.9-.82a30.89,30.89,0,0,1-21.55-29.72l0-22.12a1.72,1.72,0,1,0-3.43,0v14.3l0,3.5v4.32a34.38,34.38,0,0,0,24,33.06c8.09,2.54,17.69,2.85,28.56.93A50.71,50.71,0,0,0,114.47,212c6.12-3.42,11.4-6.38,25.45-5.5,12,.74,16.58,3.65,20.24,6,3.87,2.48,6.93,4.44,15.47,2.37a18.69,18.69,0,0,0,6.27-2.8l.22-.15c.22-.15.43-.32.64-.49s.58-.44.86-.68l.28-.25c.38-.35.76-.71,1.12-1.09l.08-.09c3.88-4.09,6.15-9.78,7.43-15.69l0-.07c.38-1.75.67-3.52.89-5.28,0,0,0,0,0,0s0-.11,0-.16c.14-1.14.25-2.26.34-3.37,0-.24,0-.47.05-.7s0-.4,0-.6c0-.4,0-.81.07-1.2,0-.06,0-.13,0-.19a99.21,99.21,0,0,0-.19-12.09,8.94,8.94,0,0,1,1.66,4v58.75a22.72,22.72,0,0,0,23.37,22.7c12.18-.33,22.09-10.71,22.09-23.13V173.86a5.49,5.49,0,0,1,1-3.19,4.28,4.28,0,0,1,.79-.74c0,.3.07.61.12.92,0,16,1.71,53.05,18,55.51l2.11,0,.33-1.32c1.53-6.11,7.46-20.29,29.06-19.92,25.23.4,39.22,9.19,41.6,26.13l.21,1.51h1.9c20.15,0,35.25-5.36,44.9-15.91,12.19-13.34,11.16-30.11,11-31.6V158.4l9.58-.87,1.52,70.11c0,2.34,0,4.48-.12,6.59,0,1.48-.46,33.52,2.37,47l-9.29-2.85-.5,1.7a186.1,186.1,0,0,1-65.71,94.85,185.22,185.22,0,0,1-204,12.85A185.83,185.83,0,0,1,59.72,322.9L58,320l-4,9.19a331.9,331.9,0,0,0-10.7-41.57,184,184,0,0,1-10-60V162.55a1.75,1.75,0,0,0-3.5,0v28.28a1.76,1.76,0,0,0-.84.31c-.05,0-5.21,3.75-9.45,1.61-3.13-1.59-6.86-6.93-6.86-23.34,0-17.8,3.43-20.92,4.91-21.44,2.37-.83,5.78,2.57,6.79,3.83a1.7,1.7,0,0,0,1.34.64h6.86a1.71,1.71,0,1,0,0-3.42H26.45c-1.53-1.71-5.76-5.79-10-4.29-4.85,1.7-7.21,9.77-7.21,24.68,0,14.59,3,23.48,8.76,26.4a9.77,9.77,0,0,0,4.44,1,15.45,15.45,0,0,0,7.38-2.18v33a187.43,187.43,0,0,0,10.16,61.13,325.08,325.08,0,0,1,11.56,46.72l.95,5.83,6-13.76A188.35,188.35,0,0,0,218.2,415.88,186.84,186.84,0,0,0,332,377.69a189.7,189.7,0,0,0,66.43-95l12.29,3.76-1.18-3.28c-3.56-9.93-3-48.54-3-48.89.08-2.11.12-4.3.12-6.72l-.7-32.16a13.63,13.63,0,0,0,5.7,1.41,9.31,9.31,0,0,0,4.14-.95c5.74-2.83,8.65-11.74,8.65-26.49,0-14.91-2.36-23-7.21-24.68-4.32-1.51-8.57,2.63-10.08,4.32l-42.43,1.73-2.85-.58a118.69,118.69,0,0,0-23.63-2.38H336c-8.24,0-14.71,2.39-18.78,6.65a83,83,0,0,0-32.19,0c-4.07-4.26-10.54-6.65-18.79-6.65H264a117.61,117.61,0,0,0-17.67,1.33V147c5.17-2.39,13.34-3.11,23.91-2.07a133.37,133.37,0,0,1,17.81,3,1.58,1.58,0,0,0,.43.05,4.1,4.1,0,0,0,1.09-8.06l-.28-.07a8.38,8.38,0,0,1-1.13-.36l-.17-.06-18.81-5.74-1.16-.4a18.19,18.19,0,0,0-14.54,1.2l-7.11,3.85v-8.52a100.1,100.1,0,0,1,23.16-64h9.29c9.77,0,15.21,2.05,18.07,3.77a9.29,9.29,0,0,1,3.77,3.59,1.72,1.72,0,0,0,1.6,1.11h.13A1.77,1.77,0,0,0,304,73.24a9.25,9.25,0,0,1,3.79-3.62c2.85-1.72,8.29-3.77,18.06-3.77h40.81a1.71,1.71,0,0,0,1.5-.89c.06-.1,5.64-10.07,15.89-11.53,7.78-1.11,16.31,2.9,25.34,11.91a100.08,100.08,0,0,1,23.58,64.49v41a1.72,1.72,0,0,0,3.43,0v-41A103.47,103.47,0,0,0,417.29,70ZM189.38,140.46c-.07.14-.14.28-.2.42l0,.05a.91.91,0,0,1-1.11.25c-2.61-2.26-6.48-3.39-10.94-3.2a94.28,94.28,0,0,0-21.78,4,1.07,1.07,0,0,1-1.2-.25,2.45,2.45,0,0,1-.68-1.9c2.61-1.17,12.08-5.28,20.11-7.09,8.56-1.92,15.46,6.77,15.49,6.82l.14.19A.9.9,0,0,1,189.38,140.46Zm216.94,15.95,3-4.67c1.07-1.31,4.42-4.59,6.74-3.77,1.48.52,4.91,3.64,4.91,21.44,0,16.59-3.66,21.89-6.73,23.41-3.28,1.63-7.12-.51-8.41-1.35l-.75-34.3A1.69,1.69,0,0,0,406.32,156.41Zm-40.05-2.26,38.45-1.57-.8,1.23-13.8,1.24-.73.11-23.12,2.09Zm-5.11-.59,1.68.34v3.69a8.38,8.38,0,0,0-4.51,2.6,17.09,17.09,0,0,0-6.41-8.12Q356.57,152.63,361.16,153.56ZM336,151.24c10.13,0,15.2,3.6,17.72,7.5a13.66,13.66,0,0,0-6.35-2.45c-7.52-.85-13.9,4.73-14.17,5a1.71,1.71,0,0,0,2.28,2.56,20.54,20.54,0,0,1,4.05-2.59,6.79,6.79,0,0,0-.73,3.05,6.86,6.86,0,0,0,13.72,0,6.75,6.75,0,0,0-.48-2.51,16.06,16.06,0,0,1,3.54,3.69,1.72,1.72,0,0,0,.53.48c.05.52.07,1,.07,1.37a20.18,20.18,0,0,1-40.36,0C315.8,163.53,317.26,151.24,336,151.24Zm11.07,9.91a3.42,3.42,0,1,1-4.53,4.52,3.34,3.34,0,0,0,1.41.31,3.41,3.41,0,0,0,3.12-4.83Zm-32.16-3.65a16.57,16.57,0,0,0-1,2.07,11,11,0,0,0-3.95-2.79C311.63,157,313.29,157.21,314.89,157.5Zm-22.61-.72a11.14,11.14,0,0,0-3.95,2.77,16.31,16.31,0,0,0-1-2.05C288.91,157.21,290.57,157,292.28,156.78Zm-4.42,30.86,1.48-15.55a23.66,23.66,0,0,0,.49-4.79c0-.3,0-.58,0-.86v-1.66c0-4.27,5.68-6.18,11.31-6.18s11.31,1.91,11.31,6.18a1.85,1.85,0,0,0,.06.42c-.06.68-.1,1.38-.1,2.1a23.62,23.62,0,0,0,23.25,23.57,1.84,1.84,0,0,0,.47.07H350a1.72,1.72,0,1,0,0-3.43h-1.87a23.57,23.57,0,0,0,11.48-20.21v-1.49a5,5,0,0,1,5-5h.15l23.82-2.15V185.5c0,.16,1.34,16.45-10.14,29-8.78,9.61-22.64,14.57-41.2,14.76-4.06-22.26-26.46-27.34-44.76-27.63-22.53-.37-29.79,13.53-32.08,21-9-2.7-12.93-22.08-13.81-42.37a23.77,23.77,0,0,0,8.06,7.51,1.71,1.71,0,0,0,1,3.13h11.14a1.91,1.91,0,0,0,.54-.09A23.6,23.6,0,0,0,285,181.58l-.55,5.73a1.72,1.72,0,0,0,1.55,1.87h.16A1.72,1.72,0,0,0,287.86,187.64Zm-21.64-36.4c17.17,0,19.82,10.33,20.14,14.95v1l-.41,4.3a20.17,20.17,0,0,1-39.62-1v-.11a19,19,0,0,1-.25-3.13v-1C246.36,161.76,248.9,151.24,266.22,151.24Zm-15.93.83a17,17,0,0,0-6.42,8.13,8.36,8.36,0,0,0-4.51-2.61V153.9l1.68-.34C244.1,152.94,247.19,152.44,250.29,152.07Zm4.8-14.56a14.77,14.77,0,0,1,11.8-1l1.21.41,18.79,5.75a13.83,13.83,0,0,0,1.48.47l.27.07a.67.67,0,0,1,0,1.31A125.94,125.94,0,0,0,261.53,141c-6.18,0-12.28.75-16.91,3v-.8l.83-.45h0ZM390.58,6.06c1.22,1,2.69,2.2,4,3.34a1.72,1.72,0,0,0,2,.18l7.12-4.39L402.32,13a1.71,1.71,0,0,0,1,1.86l5.51,2.47-.12,0c-3.5,1.49-8.56,3.66-11.41,6.94-1.15-.72-2.25-1.51-3.38-2.33a38.07,38.07,0,0,0-6-3.77C388.93,15.67,390.7,10.52,390.58,6.06Zm-4.49,15.11a32.47,32.47,0,0,1,5.79,3.61c1.23.89,2.49,1.81,3.87,2.64l-1.64,6.35a69.52,69.52,0,0,0-12.82-7.68ZM383.52,50c-10.1,1.44-16.11,9.63-17.87,12.39H325.81c-14.69,0-21,4.41-23.5,7.25-2.53-2.84-8.82-7.25-23.51-7.25h-8.29A15.93,15.93,0,0,1,275,52.91a99.48,99.48,0,0,1,71.5-30c22.55,0,37.84,5.7,52.78,19.66,6.7,6.26,9.81,12.83,12.21,20.07C401.76,53,392.35,48.78,383.52,50Z" fill="#1a1919" fill-rule="evenodd"/><path d="M411,184.65h.21a1.71,1.71,0,0,0,1.49-1.91c-1.88-14.86-.47-17.92-.09-18.44a5.22,5.22,0,0,1,1.61,1.49,1.71,1.71,0,1,0,2.78-2c-.46-.65-2.92-3.81-5.63-2.75-2.29.91-4.34,4.24-2.07,22.13A1.71,1.71,0,0,0,411,184.65Z" fill="#1a1919" fill-rule="evenodd"/><path d="M314.67,219.23c-17.42-4.37-31-3.43-37.52-2.49l-1.5.22v0c-1.38.24-2.18.44-2.33.48a1.71,1.71,0,0,0-1.24,2.08,1.73,1.73,0,0,0,2.09,1.24s.53-.13,1.48-.31v10.11a7.76,7.76,0,0,0,15.51,0v-2.06a50,50,0,0,0,9.33.68v1.38a7.76,7.76,0,0,0,15.51,0v-7.45c.59.16,1.18.31,1.78.49a1.84,1.84,0,0,0,.47.06,1.71,1.71,0,0,0,.48-3.35c-.92-.27-1.83-.52-2.73-.76v0Zm-2.17,11.38a4.26,4.26,0,0,1-8.51,0V229a22.08,22.08,0,0,0,2.84-.47,1.71,1.71,0,1,0-.84-3.32,21,21,0,0,1-2.59.4l-1.28.09a45.5,45.5,0,0,1-12.34-.92l-.62-.11c-1-.23-2-.47-3.1-.78a1.71,1.71,0,0,0-.95,3.29q1.31.38,2.55.66v2.82a4.26,4.26,0,0,1-8.51,0V220a96,96,0,0,1,33.35,2.29Z" fill="#1a1919" fill-rule="evenodd"/><path d="M139.1,240.67l.47,3.45c12.88-.51,28.91-1.15,28.91-12.3v-.3a15.7,15.7,0,0,0-5.15-11.1c-5.79-5.55-15.89-8.58-27.73-8.35-20.11.43-35.69,9.63-35.47,21,.22,10.82,14.28,11.18,29.16,11.57l.09-3.5h0c-1,0-2.63-2-3.79-3.49l-.08-.1c-.7-.88-1.37-1.82-2-2.74a26.64,26.64,0,0,0,20.34,0c-.17.27-.33.55-.5.83C142.08,237.71,140.54,240.32,139.1,240.67Zm-17.49-10.76L118,227.75v5.43l.38.48c.58.73,1.21,1.63,1.89,2.58.8,1.14,1.63,2.31,2.52,3.44l.08.1.91,1.13c-12.56-.51-20-1.85-20.13-8-.17-9,14.5-17,32-17.38H137c10.35,0,19,2.67,23.95,7.39a12.24,12.24,0,0,1,4.07,8.6v.27c0,6.35-8.59,7.89-20.52,8.57.68-1,1.29-2,1.88-3a22.58,22.58,0,0,1,1.95-3l.29-.33,1.7-7.14-3.69,2.44A23.27,23.27,0,0,1,121.61,229.91Z" fill="#1a1919" fill-rule="evenodd"/><path d="M22.36,184.64h.21a1.71,1.71,0,0,0,1.7-1.49c2.27-17.89.22-21.22-2.07-22.13-2.72-1.06-5.17,2.1-5.63,2.75a1.71,1.71,0,0,0,2.78,2A5.25,5.25,0,0,1,21,164.29c.38.53,1.79,3.58-.09,18.44A1.71,1.71,0,0,0,22.36,184.64Z" fill="#1a1919" fill-rule="evenodd"/><path d="M141.08,144.89a1.73,1.73,0,0,0-2.43.05c-.19.2-4.7,5-2.51,17.09a80.26,80.26,0,0,0,7.7,21.74,1.82,1.82,0,0,0,.29.38,6.53,6.53,0,0,1,2.29,5c-.22,3.23-3.45,5.74-3.48,5.76l-.1.09-2.67,2.35a1.72,1.72,0,0,0,1.14,3h.18l6.47-.69a1.71,1.71,0,1,0-.37-3.4l-1.19.12a11.58,11.58,0,0,0,3.44-7,9.69,9.69,0,0,0-3.1-7.5,78.08,78.08,0,0,1-7.23-20.5c-1.84-10.14,1.59-14.08,1.61-14.09A1.72,1.72,0,0,0,141.08,144.89Z" fill="#1a1919" fill-rule="evenodd"/><path d="M132.09,189.55a1.71,1.71,0,0,0,.51-3.39c-6.36-1-11-.18-13.81,2.33a7.53,7.53,0,0,0-2.57,5.52c0,.44.21,4.33,3,6a5.08,5.08,0,0,0,2.59.68,9.06,9.06,0,0,0,3.89-1.05l6.77-.66a1.71,1.71,0,1,0-.33-3.41l-7.09.69a1.75,1.75,0,0,0-.63.18c-1.08.57-2.56,1.13-3.46.61s-1.33-2.52-1.35-3.12a4.08,4.08,0,0,1,1.48-2.92C122.53,189.79,125.56,188.56,132.09,189.55Z" fill="#1a1919" fill-rule="evenodd"/><path d="M95.15,167.17a8.52,8.52,0,0,1-10.65,0,1.71,1.71,0,1,0-2.14,2.67,11.92,11.92,0,0,0,14.94,0,1.71,1.71,0,0,0-2.15-2.67Z" fill="#1a1919" fill-rule="evenodd"/><path d="M170.34,167.17a8.52,8.52,0,0,1-10.65,0,1.71,1.71,0,0,0-2.41.26,1.72,1.72,0,0,0,.26,2.41,11.92,11.92,0,0,0,14.94,0,1.71,1.71,0,1,0-2.14-2.67Z" fill="#1a1919" fill-rule="evenodd"/><path d="M102.82,156.81a1.72,1.72,0,0,0-.14-2.42c-.27-.23-6.65-5.82-14.17-5-4.26.48-8,2.9-11,7.18a1.71,1.71,0,0,0,.4,2.39,1.77,1.77,0,0,0,1,.32,1.74,1.74,0,0,0,1.4-.73A16.41,16.41,0,0,1,83.74,155a6.86,6.86,0,1,0,12.53-.65A20.07,20.07,0,0,1,100.4,157,1.72,1.72,0,0,0,102.82,156.81Zm-12.67,4a3.43,3.43,0,0,1-3.12-2,3.3,3.3,0,0,0,1.4.31,3.42,3.42,0,0,0,3.43-3.43,3.3,3.3,0,0,0-.31-1.4,3.42,3.42,0,0,1-1.4,6.54Z" fill="#1a1919" fill-rule="evenodd"/><path d="M142.84,219.56a40.17,40.17,0,0,1-18.12,0,1.71,1.71,0,1,0-.78,3.33,43.41,43.41,0,0,0,19.68,0,1.71,1.71,0,1,0-.78-3.33Z" fill="#1a1919" fill-rule="evenodd"/><path d="M121.46,139.7l-.49-.27c-.75-.4-18.38-9.88-29.59-10.87-11.65-1-24.07,12.68-24.59,13.26l-.28.43a4.16,4.16,0,0,0,.88,5.34,4.17,4.17,0,0,0,5.41.16l.22-.21C76.76,143.18,82.4,141,89.8,141c12.34,0,25.29,6.21,25.42,6.27l.58.17a5.22,5.22,0,0,0,5.85-7.18h0Zm-2.88,4a2.17,2.17,0,0,1-2.17.78h-.06c-1.68-.8-14.15-6.49-26.55-6.49-8.24,0-14.61,2.52-18.94,7.49a1.2,1.2,0,0,1-1.49-.12,1.18,1.18,0,0,1-.26-1.58l0,0c1.17-1.26,12.33-13,22-12.16S116,140.23,119,141.8A2.18,2.18,0,0,1,118.58,143.68Z" fill="#1a1919" fill-rule="evenodd"/><path d="M174.93,158.59a1.74,1.74,0,0,0,1.4.73,1.72,1.72,0,0,0,1.4-2.71c-3-4.28-6.75-6.7-11-7.18-7.52-.85-13.9,4.73-14.17,5a1.71,1.71,0,0,0,2.28,2.56,20.54,20.54,0,0,1,4-2.59,6.79,6.79,0,0,0-.73,3,6.86,6.86,0,0,0,13.72,0,6.75,6.75,0,0,0-.48-2.51A16.06,16.06,0,0,1,174.93,158.59ZM165,160.83a3.43,3.43,0,0,1-3.12-2,3.31,3.31,0,0,0,1.41.31,3.41,3.41,0,0,0,3.12-4.83,3.42,3.42,0,0,1-1.41,6.54Z" fill="#1a1919" fill-rule="evenodd"/></svg>