<svg id="f51e25cd-e91f-4a15-a678-2b0342ecefe4" data-name="Layer 1" xmlns="http://www.w3.org/2000/svg" xmlns:xlink="http://www.w3.org/1999/xlink" width="33.91" height="30" viewBox="0 0 33.91 30"><defs><clipPath id="e50dc67e-4942-47ad-b4ca-709bb76fab79"><path d="M-615.37,1680.58c1.38,3.49,2.29,9.3,2.29,18.54,0,37.18-18.36,23.11-18.36,23.11h-.23l-.8-36.86v-.05l1.57-.14,3.07-4.74s8.33-10.45,12.46.13" fill="none" clip-rule="evenodd"/></clipPath><clipPath id="fead8ed0-d4c2-4444-8f46-37b5c4fc89a6"><path d="M-871.19,1577.81l.42.37c-3.08,34.5-91.59,5.26-113.08,3.07s22.86,57,6.4,65.92-12.34,61.14-12.34,61.14h-14.48v-27.86h-5.86s-3.87-4.87-7.65-4.59h-.22l-.15,0-.19,0-.17,0a4.49,4.49,0,0,0-2.16,1.35,1.33,1.33,0,0,0-.16.17l-.16.18a7.23,7.23,0,0,0-.6.86,1.88,1.88,0,0,0-.14.24,10.24,10.24,0,0,0-.57,1.1c-.09.19-.17.38-.25.59l0,0h-11.5v-21c0-56.2,31.88-101.76,88.14-101.76h21.74c.69,0,1.37,0,2.06,0s1.69,0,2.53.1l1.48.1c.12,0,.24,0,.35,0,.5,0,1,.07,1.48.13.34,0,.68.06,1,.11l.76.08,1.14.15.92.13c.35,0,.69.1,1,.16s.54.08.8.13l1,.18c.34.05.68.11,1,.19l.83.16,1.15.25.87.2.58.14,1.31.33c.15,0,.29.07.43.12l1.4.38c1.93.55,3.83,1.18,5.7,1.87l1.46.56c.69.27,1.38.55,2.06.85.51.21,1,.43,1.53.66l1.42.66.7.34c.46.22.92.44,1.37.68h0l1.36.71.71.39.81.45.95.54.52.31c.37.21.73.43,1.1.66.13.08.26.15.38.24.41.24.81.5,1.21.76,1.12.73,2.23,1.48,3.32,2.27.38.27.75.54,1.13.83,1.43,1.06,2.82,2.18,4.18,3.34l.92.8" fill="none" clip-rule="evenodd"/></clipPath><clipPath id="130366d5-3971-478e-896b-843022c21800"><path d="M-1004.27,1680.45h0m-18.3.06h0l0,0c0-.06,0-.11.07-.17l-.09.22" fill="none" clip-rule="evenodd"/></clipPath><clipPath id="19686875-523b-4406-8ade-11b66d00fe8b"><path d="M-776.26,1695.89a1.67,1.67,0,0,1-1-.32,1.71,1.71,0,0,1-.4-2.39c3-4.28,6.74-6.69,11-7.18,7.53-.85,13.91,4.73,14.17,5a1.72,1.72,0,0,1,.15,2.42,1.72,1.72,0,0,1-2.42.14c-.06,0-5.53-4.81-11.53-4.12-3.24.38-6.13,2.31-8.58,5.76a1.7,1.7,0,0,1-1.4.72" fill="none" clip-rule="evenodd"/></clipPath><clipPath id="1bd42826-adc2-4389-bef0-4c544e4579d1"><path d="M-219.31,1577.81c.14.12.29.24.42.37-3.08,34.5-91.58,5.26-113.08,3.07s22.87,57,6.41,65.92-12.35,61.14-12.35,61.14h-14.47v-27.86h-5.86s-3.88-4.87-7.66-4.59h-.21l-.15,0a1.08,1.08,0,0,0-.19,0l-.17,0a4.44,4.44,0,0,0-2.16,1.35.87.87,0,0,0-.16.17l-.16.18a7.23,7.23,0,0,0-.6.86l-.15.24c-.19.33-.38.7-.56,1.1-.09.19-.17.38-.25.59l0,0h-11.5v-21c0-56.2,31.88-101.76,88.14-101.76h21.73l2.07,0c.84,0,1.68,0,2.53.1l1.48.1c.12,0,.23,0,.35,0,.49,0,1,.07,1.47.13s.69.06,1,.11l.77.08,1.14.15.92.13c.34,0,.69.1,1,.16s.53.08.8.13l1,.18c.35.05.68.11,1,.19l.82.16,1.16.25.87.2.58.14,1.31.33c.14,0,.29.07.42.12l1.4.38c1.94.55,3.84,1.18,5.7,1.87.5.18,1,.37,1.47.56.69.27,1.37.55,2.06.85.51.21,1,.43,1.52.66l1.43.66c.23.11.47.22.69.34.46.22.92.44,1.38.68h0l1.35.71.72.39.81.45.94.54.53.31c.37.21.73.43,1.09.66l.39.24c.4.24.81.5,1.2.76,1.13.73,2.24,1.48,3.33,2.27.37.27.75.54,1.13.83,1.42,1.06,2.82,2.18,4.18,3.34l.91.8" fill="none" clip-rule="evenodd"/></clipPath><clipPath id="c52e14da-aa53-473f-8430-3988afd6a095"><path d="M-352.38,1680.45h0m-18.3.06h0l0,0a1.22,1.22,0,0,1,.07-.17l-.09.22" fill="none" clip-rule="evenodd"/></clipPath><linearGradient id="2acb9c12-8e73-488e-98b1-c9dc095ea422" x1="16.95" y1="28.72" x2="16.95" y2="1.16" gradientUnits="userSpaceOnUse"><stop offset="0" stop-color="#6e23ff"/><stop offset="1" stop-color="#fd7dff"/></linearGradient><clipPath id="ce8bf271-d3e5-41e6-bca2-a2990b4e34c4"><path d="M-252-2076.16v-2.25h-16.45v2.25H-252Zm-27.27-4a7.18,7.18,0,0,0,3.64-.94,5.91,5.91,0,0,0,2.46-2.52h.07v3.29h2.91v-13a5.5,5.5,0,0,0-2-4.46,8.16,8.16,0,0,0-5.36-1.66,7.93,7.93,0,0,0-5,1.62,5.13,5.13,0,0,0-2.13,4h2.93a3.31,3.31,0,0,1,1.42-2.14,4.77,4.77,0,0,1,2.78-.78,4.87,4.87,0,0,1,3.22.94,3.33,3.33,0,0,1,1.13,2.71v1.59l-5.31.31q-7.11.43-7.1,5.45a5.08,5.08,0,0,0,1.75,4A6.83,6.83,0,0,0-279.25-2080.12Zm.66-2.65a4.67,4.67,0,0,1-2.86-.79,2.5,2.5,0,0,1-1.06-2.11c0-1.85,1.44-2.87,4.32-3l5-.32v1.53a4.32,4.32,0,0,1-1.52,3.38A5.59,5.59,0,0,1-278.59-2082.77Zm-23,9.35a5.76,5.76,0,0,0,3.9-1.2,11.29,11.29,0,0,0,2.59-4.51l7.42-20.11h-3.22l-5.31,15.84h-.07l-5.31-15.84h-3.25l7,19-.37,1.12a5.77,5.77,0,0,1-1.37,2.43,3.1,3.1,0,0,1-2.11.7l-.65,0a3.36,3.36,0,0,1-.6-.08v2.59l.43.06.47,0Zm-13.73-9.42a5,5,0,0,1-4.13-1.84,7.87,7.87,0,0,1-1.49-5.09,7.85,7.85,0,0,1,1.49-5.09,5,5,0,0,1,4.13-1.83,5,5,0,0,1,4.14,1.83,7.84,7.84,0,0,1,1.49,5.09,7.87,7.87,0,0,1-1.49,5.09A5,5,0,0,1-315.27-2082.84Zm0,2.72a8.16,8.16,0,0,0,6.37-2.62,10.12,10.12,0,0,0,2.37-7,10.09,10.09,0,0,0-2.37-7,8.2,8.2,0,0,0-6.37-2.62,8.18,8.18,0,0,0-6.36,2.62,10.09,10.09,0,0,0-2.37,7,10.12,10.12,0,0,0,2.37,7A8.14,8.14,0,0,0-315.27-2080.12Zm-18.1-23.39v4.27H-336v2.53h2.64v11.5a5.57,5.57,0,0,0,1.1,3.89,4.84,4.84,0,0,0,3.66,1.17c.37,0,.74,0,1.12,0a4.42,4.42,0,0,0,.85-.11v-2.58l-.6,0-.72,0a2.31,2.31,0,0,1-1.78-.61,2.75,2.75,0,0,1-.57-1.92v-11.37h3.69v-2.53h-3.69v-4.27h-3.06Zm-21.29,23.22h3.06v-11a5.63,5.63,0,0,1,1.33-3.92,4.67,4.67,0,0,1,3.66-1.47,4.24,4.24,0,0,1,3.34,1.23,5.17,5.17,0,0,1,1.09,3.55v11.62h3.06v-12.15a7.29,7.29,0,0,0-1.72-5.11,6.31,6.31,0,0,0-4.86-1.87,7.44,7.44,0,0,0-3.65.82,6.21,6.21,0,0,0-2.36,2.43h-.07v-3.07h-2.88v18.95Zm-12.64-2.55a5,5,0,0,1-4.13-1.84,7.82,7.82,0,0,1-1.49-5.09,7.91,7.91,0,0,1,1.48-5.09,5,5,0,0,1,4.14-1.83,5,5,0,0,1,4.14,1.83,7.84,7.84,0,0,1,1.49,5.09,7.87,7.87,0,0,1-1.49,5.09A5,5,0,0,1-367.3-2082.84Zm0,2.72a8.14,8.14,0,0,0,6.36-2.62,10.08,10.08,0,0,0,2.38-7,10,10,0,0,0-2.38-7,8.18,8.18,0,0,0-6.36-2.62,8.18,8.18,0,0,0-6.36,2.62,10,10,0,0,0-2.38,7,10.08,10.08,0,0,0,2.38,7A8.14,8.14,0,0,0-367.3-2080.12Zm-38.39-.17h3.06V-2092a4.67,4.67,0,0,1,1.24-3.32,4.17,4.17,0,0,1,3.15-1.32,4,4,0,0,1,2.86,1,3.68,3.68,0,0,1,1.08,2.76v12.61h3.06v-11.92a4.44,4.44,0,0,1,1.22-3.22,4.14,4.14,0,0,1,3.12-1.26,3.83,3.83,0,0,1,2.94,1.1,4.24,4.24,0,0,1,1,3.06v12.24h3.06v-12.94a6.09,6.09,0,0,0-1.68-4.51,6.07,6.07,0,0,0-4.49-1.68,6.81,6.81,0,0,0-3.57,1,6.06,6.06,0,0,0-2.39,2.64H-392a5.26,5.26,0,0,0-2-2.66,5.78,5.78,0,0,0-3.31-.93,6.21,6.21,0,0,0-3.28.87,5.27,5.27,0,0,0-2.1,2.38h-.07v-3.07h-2.88v18.95Zm-18.3-13.66c0,2.52,1.64,4.21,4.94,5.06l3.32.86a5.8,5.8,0,0,1,2.29,1,2,2,0,0,1,.66,1.59,2.32,2.32,0,0,1-1.13,2,5.6,5.6,0,0,1-3.07.74,5.43,5.43,0,0,1-3.07-.76,3.15,3.15,0,0,1-1.39-2.21h-3.08a5.4,5.4,0,0,0,2.25,4,8.18,8.18,0,0,0,5.08,1.52,8.87,8.87,0,0,0,5.39-1.54,4.74,4.74,0,0,0,2.1-4,4.27,4.27,0,0,0-1.16-3.2,8.89,8.89,0,0,0-4-1.86l-2.89-.72a6,6,0,0,1-2.41-1.06,2,2,0,0,1-.79-1.63,2.33,2.33,0,0,1,1.08-2,4.74,4.74,0,0,1,2.83-.76,4.83,4.83,0,0,1,2.83.77A2.89,2.89,0,0,1-413-2094h2.93a5,5,0,0,0-2.05-3.87,7.56,7.56,0,0,0-4.84-1.54,8,8,0,0,0-5,1.52A4.72,4.72,0,0,0-424-2093.95Zm-12.33,11.11a5,5,0,0,1-4.13-1.84,7.87,7.87,0,0,1-1.49-5.09,7.85,7.85,0,0,1,1.49-5.09,5,5,0,0,1,4.13-1.83,5,5,0,0,1,4.14,1.83,7.84,7.84,0,0,1,1.49,5.09,7.87,7.87,0,0,1-1.49,5.09A5,5,0,0,1-436.32-2082.84Zm0,2.72a8.16,8.16,0,0,0,6.37-2.62,10.12,10.12,0,0,0,2.37-7,10.09,10.09,0,0,0-2.37-7,8.2,8.2,0,0,0-6.37-2.62,8.18,8.18,0,0,0-6.36,2.62,10.09,10.09,0,0,0-2.37,7,10.12,10.12,0,0,0,2.37,7A8.14,8.14,0,0,0-436.32-2080.12Zm-15.87-.17h3.06v-26.47h-3.06v26.47Z" fill="none" clip-rule="evenodd"/></clipPath><clipPath id="7bbb08a9-568c-47ce-856f-453a93ea14cf"><rect x="-619.42" y="-2155.29" width="1440" height="5199" fill="none"/></clipPath></defs><title>twit-icon</title><path d="M10.66,28.72c12.8,0,19.8-10.6,19.8-19.8,0-.3,0-.6,0-.9a14,14,0,0,0,3.47-3.6,13.79,13.79,0,0,1-4,1.1A7,7,0,0,0,33,1.67a13.78,13.78,0,0,1-4.41,1.69,7,7,0,0,0-12,4.76A6.9,6.9,0,0,0,16.7,9.7,19.75,19.75,0,0,1,2.36,2.43a7,7,0,0,0,2.15,9.29,6.87,6.87,0,0,1-3.15-.87v.09a7,7,0,0,0,5.58,6.82A6.91,6.91,0,0,1,5.11,18a7,7,0,0,1-1.31-.13,7,7,0,0,0,6.5,4.83,13.93,13.93,0,0,1-8.64,3A13,13,0,0,1,0,25.59a19.63,19.63,0,0,0,10.66,3.13" fill-rule="evenodd" fill="url(#2acb9c12-8e73-488e-98b1-c9dc095ea422)"/><g clip-path="url(#ce8bf271-d3e5-41e6-bca2-a2990b4e34c4)"><g clip-path="url(#7bbb08a9-568c-47ce-856f-453a93ea14cf)"><g opacity="0"><g opacity="0"><g clip-path="url(#7bbb08a9-568c-47ce-856f-453a93ea14cf)"><image width="6001" height="21663" transform="translate(-619.5 -2155.32) scale(0.24)" xlink:href="twit-icon1.png"/></g></g></g><g clip-path="url(#7bbb08a9-568c-47ce-856f-453a93ea14cf)"><image width="6001" height="21663" transform="translate(-619.5 -2155.32) scale(0.24)" xlink:href="twit-icon2.png"/></g></g></g></svg>